STARTFONT 2.1
FONT -DEC-Terminal-Medium-R-Narrow--50-360-100-100-C-180-iso8859-5
SIZE 36 100 100
FONTBOUNDINGBOX 18 50 0 -10

STARTPROPERTIES 24
FOUNDRY "Monotype"
FAMILY_NAME "VT"
WEIGHT_NAME "Regular"
SLANT "R"
SETWIDTH_NAME "Narrow"
ADD_STYLE_NAME ""
PIXEL_SIZE 50
POINT_SIZE 360
RESOLUTION_X 100
RESOLUTION_Y 100
SPACING "C"
AVERAGE_WIDTH 180
CHARSET_REGISTRY "iso8859"
CHARSET_ENCODING "5"
FACE_NAME "VT Narrow ISO Latin Cyrillic"
_DEC_DEVICE_FONTNAMES "PS=vt-narrow-isolatincyrillic"
COPYRIGHT "Copyright (c) 1993 Monotype Typography Ltd."
CAP_HEIGHT 28
X_HEIGHT 21
WEIGHT 10
QUAD_WIDTH 18
DEFAULT_CHAR 160
FONT_DESCENT 10
FONT_ASCENT 40
ENDPROPERTIES

CHARS 191

STARTCHAR space
ENCODING 32
SWIDTH 361 0
DWIDTH 18 0
BBX 18 50 0 -10
BITMAP
000000
000000
000000
000000
000000
000000
000000
000000
000000
000000
000000
000000
000000
000000
000000
000000
000000
000000
000000
000000
000000
000000
000000
000000
000000
000000
000000
000000
000000
000000
000000
000000
000000
000000
000000
000000
000000
000000
000000
000000
000000
000000
000000
000000
000000
000000
000000
000000
000000
000000
ENDCHAR

STARTCHAR exclam
ENCODING 33
SWIDTH 361 0
DWIDTH 18 0
BBX 18 50 0 -10
BITMAP
000000
000000
000000
000000
000000
000000
000000
000000
000000
000000
00C000
00C000
00C000
00C000
00C000
00C000
00C000
00C000
00C000
00C000
00C000
00C000
00C000
00C000
00C000
00C000
00C000
00C000
000000
000000
000000
000000
000000
000000
00C000
00C000
03F000
03F000
00C000
00C000
000000
000000
000000
000000
000000
000000
000000
000000
000000
000000
ENDCHAR

STARTCHAR quotedbl
ENCODING 34
SWIDTH 361 0
DWIDTH 18 0
BBX 18 50 0 -10
BITMAP
000000
000000
000000
000000
000000
000000
000000
000000
000000
063000
063000
063000
063000
063000
063000
063000
063000
063000
063000
063000
063000
063000
000000
000000
000000
000000
000000
000000
000000
000000
000000
000000
000000
000000
000000
000000
000000
000000
000000
000000
000000
000000
000000
000000
000000
000000
000000
000000
000000
000000
ENDCHAR

STARTCHAR numbersign
ENCODING 35
SWIDTH 361 0
DWIDTH 18 0
BBX 18 50 0 -10
BITMAP
000000
000000
000000
000000
000000
000000
000000
000000
000000
000000
063000
063000
063000
063000
063000
063000
063000
063000
063000
063000
1FFC00
1FFC00
063000
063000
063000
063000
063000
063000
063000
063000
1FFC00
1FFC00
063000
063000
063000
063000
063000
063000
063000
063000
063000
063000
000000
000000
000000
000000
000000
000000
000000
000000
ENDCHAR

STARTCHAR dollar
ENCODING 36
SWIDTH 361 0
DWIDTH 18 0
BBX 18 50 0 -10
BITMAP
000000
000000
000000
000000
00C000
00C000
00C000
00C000
00C000
00C000
00C000
00C000
07FA00
07FA00
0C1E00
0C0E00
180600
180600
180600
180600
0F0000
0F0000
07E000
07E000
00FC00
00FC00
001C00
001C00
180600
180600
180600
180600
1C0600
1C0600
1F0C00
1F0C00
19F800
19F800
00C000
00C000
00C000
00C000
00C000
00C000
00C000
00C000
000000
000000
000000
000000
ENDCHAR

STARTCHAR percent
ENCODING 37
SWIDTH 361 0
DWIDTH 18 0
BBX 18 50 0 -10
BITMAP
000000
000000
000000
000000
000000
000000
000000
000000
000000
000000
1F8000
1F8000
30C000
30C000
30C000
30C000
30C000
30C000
30C600
30C600
1F9C00
1F9C00
007000
007000
00E000
00E000
038000
038000
0E7E00
0E7E00
18C300
18C300
00C300
00C300
00C300
00C300
00C300
00C300
007E00
007E00
000000
000000
000000
000000
000000
000000
000000
000000
000000
000000
ENDCHAR

STARTCHAR ampersand
ENCODING 38
SWIDTH 361 0
DWIDTH 18 0
BBX 18 50 0 -10
BITMAP
000000
000000
000000
000000
000000
000000
000000
000000
000000
000000
03F800
03F800
071800
071800
061800
061800
060000
060000
060000
060000
030000
030000
018000
018000
078600
078600
0EC600
0EC600
0C6400
0C6400
0C6C00
0C6C00
0C3800
0C3800
0C1800
0C1800
0E7E00
0E7E00
07C600
07C600
000000
000000
000000
000000
000000
000000
000000
000000
000000
000000
ENDCHAR

STARTCHAR quoteright
ENCODING 39
SWIDTH 361 0
DWIDTH 18 0
BBX 18 50 0 -10
BITMAP
000000
000000
000000
000000
000000
000000
007800
007800
00F000
00F000
01E000
01E000
03C000
03C000
030000
030000
060000
060000
000000
000000
000000
000000
000000
000000
000000
000000
000000
000000
000000
000000
000000
000000
000000
000000
000000
000000
000000
000000
000000
000000
000000
000000
000000
000000
000000
000000
000000
000000
000000
000000
ENDCHAR

STARTCHAR parenleft
ENCODING 40
SWIDTH 361 0
DWIDTH 18 0
BBX 18 50 0 -10
BITMAP
000000
000000
000000
000000
001800
001800
003000
003000
006000
006000
00C000
00C000
00C000
00C000
018000
018000
018000
018000
030000
030000
030000
030000
030000
030000
030000
030000
030000
030000
030000
030000
030000
030000
030000
030000
018000
018000
018000
018000
00C000
00C000
00C000
00C000
006000
006000
003000
003000
001800
001800
000000
000000
ENDCHAR

STARTCHAR parenright
ENCODING 41
SWIDTH 361 0
DWIDTH 18 0
BBX 18 50 0 -10
BITMAP
000000
000000
000000
000000
030000
030000
018000
018000
00C000
00C000
006000
006000
006000
006000
003000
003000
003000
003000
001800
001800
001800
001800
001800
001800
001800
001800
001800
001800
001800
001800
001800
001800
001800
001800
003000
003000
003000
003000
006000
006000
006000
006000
00C000
00C000
018000
018000
030000
030000
000000
000000
ENDCHAR

STARTCHAR asterisk
ENCODING 42
SWIDTH 361 0
DWIDTH 18 0
BBX 18 50 0 -10
BITMAP
000000
000000
000000
000000
000000
000000
000000
000000
000000
000000
000000
000000
00C000
00C000
0CCC00
0CCC00
0CCC00
0CCC00
03F000
03F000
03F000
03F000
00C000
00C000
033000
033000
033000
033000
0C0C00
0C0C00
0C0C00
0C0C00
000000
000000
000000
000000
000000
000000
000000
000000
000000
000000
000000
000000
000000
000000
000000
000000
000000
000000
ENDCHAR

STARTCHAR plus
ENCODING 43
SWIDTH 361 0
DWIDTH 18 0
BBX 18 50 0 -10
BITMAP
000000
000000
000000
000000
000000
000000
000000
000000
000000
000000
000000
000000
000000
000000
00C000
00C000
00C000
00C000
00C000
00C000
00C000
00C000
00C000
00C000
3FFF00
3FFF00
00C000
00C000
00C000
00C000
00C000
00C000
00C000
00C000
00C000
00C000
000000
000000
000000
000000
000000
000000
000000
000000
000000
000000
000000
000000
000000
000000
ENDCHAR

STARTCHAR comma
ENCODING 44
SWIDTH 361 0
DWIDTH 18 0
BBX 18 50 0 -10
BITMAP
000000
000000
000000
000000
000000
000000
000000
000000
000000
000000
000000
000000
000000
000000
000000
000000
000000
000000
000000
000000
000000
000000
000000
000000
000000
000000
000000
000000
000000
000000
000000
000000
000000
000000
00F000
00F000
00E000
00E000
01C000
01C000
018000
018000
030000
030000
060000
060000
000000
000000
000000
000000
ENDCHAR

STARTCHAR minus
ENCODING 45
SWIDTH 361 0
DWIDTH 18 0
BBX 18 50 0 -10
BITMAP
000000
000000
000000
000000
000000
000000
000000
000000
000000
000000
000000
000000
000000
000000
000000
000000
000000
000000
000000
000000
000000
000000
000000
000000
1FFE00
1FFE00
000000
000000
000000
000000
000000
000000
000000
000000
000000
000000
000000
000000
000000
000000
000000
000000
000000
000000
000000
000000
000000
000000
000000
000000
ENDCHAR

STARTCHAR period
ENCODING 46
SWIDTH 361 0
DWIDTH 18 0
BBX 18 50 0 -10
BITMAP
000000
000000
000000
000000
000000
000000
000000
000000
000000
000000
000000
000000
000000
000000
000000
000000
000000
000000
000000
000000
000000
000000
000000
000000
000000
000000
000000
000000
000000
000000
000000
000000
000000
000000
00C000
00C000
03F000
03F000
00C000
00C000
000000
000000
000000
000000
000000
000000
000000
000000
000000
000000
ENDCHAR

STARTCHAR slash
ENCODING 47
SWIDTH 361 0
DWIDTH 18 0
BBX 18 50 0 -10
BITMAP
000000
000000
000000
000000
000000
000000
000C00
000C00
000C00
000C00
001800
001800
001800
001800
003000
003000
003000
003000
006000
006000
006000
006000
00C000
00C000
00C000
00C000
00C000
00C000
018000
018000
018000
018000
030000
030000
030000
030000
060000
060000
060000
060000
0C0000
0C0000
0C0000
0C0000
000000
000000
000000
000000
000000
000000
ENDCHAR

STARTCHAR zero
ENCODING 48
SWIDTH 361 0
DWIDTH 18 0
BBX 18 50 0 -10
BITMAP
000000
000000
000000
000000
000000
000000
000000
000000
000000
000000
03F000
03F000
073800
073800
0C0C00
0C0C00
0C0C00
0C0C00
180600
180600
180600
180600
180600
180600
180600
180600
180600
180600
180600
180600
180600
180600
0C0C00
0C0C00
0C0C00
0C0C00
073800
073800
03F000
03F000
000000
000000
000000
000000
000000
000000
000000
000000
000000
000000
ENDCHAR

STARTCHAR one
ENCODING 49
SWIDTH 361 0
DWIDTH 18 0
BBX 18 50 0 -10
BITMAP
000000
000000
000000
000000
000000
000000
000000
000000
000000
000000
00C000
00C000
01C000
01C000
06C000
06C000
18C000
18C000
00C000
00C000
00C000
00C000
00C000
00C000
00C000
00C000
00C000
00C000
00C000
00C000
00C000
00C000
00C000
00C000
00C000
00C000
00C000
00C000
0FFC00
0FFC00
000000
000000
000000
000000
000000
000000
000000
000000
000000
000000
ENDCHAR

STARTCHAR two
ENCODING 50
SWIDTH 361 0
DWIDTH 18 0
BBX 18 50 0 -10
BITMAP
000000
000000
000000
000000
000000
000000
000000
000000
000000
000000
07F000
07F000
0C1800
0C1800
180C00
180C00
180C00
180C00
001800
001800
001800
001800
003000
003000
006000
006000
00C000
00C000
008000
008000
018000
018000
030000
030000
060C00
060C00
0C0C00
0C0C00
1FFC00
1FFC00
000000
000000
000000
000000
000000
000000
000000
000000
000000
000000
ENDCHAR

STARTCHAR three
ENCODING 51
SWIDTH 361 0
DWIDTH 18 0
BBX 18 50 0 -10
BITMAP
000000
000000
000000
000000
000000
000000
000000
000000
000000
000000
07E000
07E000
1C3000
1C3000
181800
181800
001800
001800
001800
001800
003000
003000
03E000
03E000
007000
007000
001800
001800
000C00
000C00
000C00
000C00
000C00
000C00
181800
181800
1C3800
1C3800
0FE000
0FE000
000000
000000
000000
000000
000000
000000
000000
000000
000000
000000
ENDCHAR

STARTCHAR four
ENCODING 52
SWIDTH 361 0
DWIDTH 18 0
BBX 18 50 0 -10
BITMAP
000000
000000
000000
000000
000000
000000
000000
000000
000000
000000
001800
001800
003800
003800
007800
007800
00D800
00D800
019800
019800
011800
011800
031800
031800
061800
061800
0C1800
0C1800
181800
181800
1FFE00
1FFE00
001800
001800
001800
001800
001800
001800
007E00
007E00
000000
000000
000000
000000
000000
000000
000000
000000
000000
000000
ENDCHAR

STARTCHAR five
ENCODING 53
SWIDTH 361 0
DWIDTH 18 0
BBX 18 50 0 -10
BITMAP
000000
000000
000000
000000
000000
000000
000000
000000
000000
000000
0FFC00
0FFC00
0C0000
0C0000
0C0000
0C0000
0C0000
0C0000
0C0000
0C0000
0DF000
0DF000
0E3C00
0E3C00
000C00
000C00
000600
000600
000600
000600
000600
000600
000600
000600
0C0E00
0C0E00
0E1C00
0E1C00
07F000
07F000
000000
000000
000000
000000
000000
000000
000000
000000
000000
000000
ENDCHAR

STARTCHAR six
ENCODING 54
SWIDTH 361 0
DWIDTH 18 0
BBX 18 50 0 -10
BITMAP
000000
000000
000000
000000
000000
000000
000000
000000
000000
000000
00FC00
00FC00
038000
038000
060000
060000
0C0000
0C0000
080000
080000
180000
180000
1BF800
1BF800
1E0C00
1E0C00
1C0600
1C0600
180600
180600
180600
180600
180600
180600
080600
080600
0E1C00
0E1C00
03F000
03F000
000000
000000
000000
000000
000000
000000
000000
000000
000000
000000
ENDCHAR

STARTCHAR seven
ENCODING 55
SWIDTH 361 0
DWIDTH 18 0
BBX 18 50 0 -10
BITMAP
000000
000000
000000
000000
000000
000000
000000
000000
000000
000000
1FFE00
1FFE00
180600
180600
180E00
180E00
180C00
180C00
001800
001800
001800
003800
003000
003000
007000
007000
006000
006000
00C000
00C000
00C000
00C000
018000
018000
018000
018000
030000
030000
030000
030000
000000
000000
000000
000000
000000
000000
000000
000000
000000
000000
ENDCHAR

STARTCHAR eight
ENCODING 56
SWIDTH 361 0
DWIDTH 18 0
BBX 18 50 0 -10
BITMAP
000000
000000
000000
000000
000000
000000
000000
000000
000000
000000
03F000
03F000
0E1C00
0E1C00
0C0C00
0C0C00
180600
180600
180600
180600
0C0C00
0C0C00
07F800
07F800
0E1C00
0E1C00
1C0E00
1C0E00
180600
180600
180600
180600
180600
180600
1C0E00
1C0E00
0E1C00
0E1C00
03F000
03F000
000000
000000
000000
000000
000000
000000
000000
000000
000000
000000
ENDCHAR

STARTCHAR nine
ENCODING 57
SWIDTH 361 0
DWIDTH 18 0
BBX 18 50 0 -10
BITMAP
000000
000000
000000
000000
000000
000000
000000
000000
000000
000000
07F000
07F000
0C1C00
0C1C00
180C00
180C00
180600
180600
180600
180600
180600
180600
180E00
180E00
0C1E00
0C1E00
07F600
07F600
000600
000600
000C00
000C00
000C00
000C00
001800
001800
007000
007000
0FC000
0FC000
000000
000000
000000
000000
000000
000000
000000
000000
000000
000000
ENDCHAR

STARTCHAR colon
ENCODING 58
SWIDTH 361 0
DWIDTH 18 0
BBX 18 50 0 -10
BITMAP
000000
000000
000000
000000
000000
000000
000000
000000
000000
000000
000000
000000
000000
000000
000000
000000
000000
000000
000000
000000
00C000
00C000
03F000
03F000
00C000
00C000
000000
000000
000000
000000
000000
000000
000000
000000
00C000
00C000
03F000
03F000
00C000
00C000
000000
000000
000000
000000
000000
000000
000000
000000
000000
000000
ENDCHAR

STARTCHAR semicolon
ENCODING 59
SWIDTH 361 0
DWIDTH 18 0
BBX 18 50 0 -10
BITMAP
000000
000000
000000
000000
000000
000000
000000
000000
000000
000000
000000
000000
000000
000000
000000
000000
000000
000000
000000
000000
00C000
00C000
03F000
03F000
00C000
00C000
000000
000000
000000
000000
000000
000000
000000
000000
01E000
01E000
01C000
01C000
038000
038000
030000
030000
060000
060000
0C0000
0C0000
000000
000000
000000
000000
ENDCHAR

STARTCHAR less
ENCODING 60
SWIDTH 361 0
DWIDTH 18 0
BBX 18 50 0 -10
BITMAP
000000
000000
000000
000000
000000
000000
000000
000000
000000
000000
000000
000000
000000
000000
000000
000000
000C00
000C00
003800
003800
00E000
00E000
038000
038000
060000
060000
1C0000
1C0000
060000
060000
038000
038000
00E000
00E000
003800
003800
000C00
000C00
000000
000000
000000
000000
000000
000000
000000
000000
000000
000000
000000
000000
ENDCHAR

STARTCHAR equal
ENCODING 61
SWIDTH 361 0
DWIDTH 18 0
BBX 18 50 0 -10
BITMAP
000000
000000
000000
000000
000000
000000
000000
000000
000000
000000
000000
000000
000000
000000
000000
000000
000000
000000
000000
000000
1FFE00
1FFE00
000000
000000
000000
000000
000000
000000
1FFE00
1FFE00
000000
000000
000000
000000
000000
000000
000000
000000
000000
000000
000000
000000
000000
000000
000000
000000
000000
000000
000000
000000
ENDCHAR

STARTCHAR greater
ENCODING 62
SWIDTH 361 0
DWIDTH 18 0
BBX 18 50 0 -10
BITMAP
000000
000000
000000
000000
000000
000000
000000
000000
000000
000000
000000
000000
000000
000000
000000
000000
180000
180000
0E0000
0E0000
038000
038000
00E000
00E000
003000
003000
001C00
001C00
003000
003000
00E000
00E000
038000
038000
0E0000
0E0000
180000
180000
000000
000000
000000
000000
000000
000000
000000
000000
000000
000000
000000
000000
ENDCHAR

STARTCHAR question
ENCODING 63
SWIDTH 361 0
DWIDTH 18 0
BBX 18 50 0 -10
BITMAP
000000
000000
000000
000000
000000
000000
000000
000000
000000
000000
000000
000000
000000
03E000
03E000
0E3800
0E3800
180C00
180C00
180C00
180C00
001800
001800
007000
007000
00C000
00C000
00C000
00C000
00C000
00C000
000000
000000
000000
00C000
00C000
03F000
03F000
00C000
00C000
000000
000000
000000
000000
000000
000000
000000
000000
000000
000000
ENDCHAR

STARTCHAR at
ENCODING 64
SWIDTH 361 0
DWIDTH 18 0
BBX 18 50 0 -10
BITMAP
000000
000000
000000
000000
000000
000000
00FC00
00FC00
038600
038600
060300
060300
060300
060300
0C0300
0C0300
0C0300
0C0300
0C3F00
0C7F00
0C6300
0C6300
0C6300
0C6300
0C6300
0C6300
0C6300
0C6300
0C6300
0C6300
0C6300
0C6300
0C3FC0
0C3FC0
0C0000
0C0000
0C0000
0C0000
060000
060000
0600C0
0600C0
0381C0
0381C0
00FF00
00FF00
000000
000000
000000
000000
ENDCHAR

STARTCHAR A
ENCODING 65
SWIDTH 361 0
DWIDTH 18 0
BBX 18 50 0 -10
BITMAP
000000
000000
000000
000000
000000
000000
000000
000000
000000
000000
00C000
00C000
00C000
00C000
01E000
01E000
033000
033000
033000
033000
033000
033000
061800
061800
061800
061800
0C0C00
0C0C00
0FFC00
0FFC00
0C0C00
0C0C00
180600
180600
180600
180600
180600
180600
7E1F80
7E1F80
000000
000000
000000
000000
000000
000000
000000
000000
000000
000000
ENDCHAR

STARTCHAR B
ENCODING 66
SWIDTH 361 0
DWIDTH 18 0
BBX 18 50 0 -10
BITMAP
000000
000000
000000
000000
000000
000000
000000
000000
000000
000000
3FF800
3FF800
0C0E00
0C0E00
0C0300
0C0300
0C0300
0C0300
0C0300
0C0300
0C0600
0C0600
0FFC00
0FFC00
0C0600
0C0600
0C0300
0C0300
0C0300
0C0300
0C0300
0C0300
0C0300
0C0300
0C0300
0C0300
0C0E00
0C0E00
3FF800
3FF800
000000
000000
000000
000000
000000
000000
000000
000000
000000
000000
ENDCHAR

STARTCHAR C
ENCODING 67
SWIDTH 361 0
DWIDTH 18 0
BBX 18 50 0 -10
BITMAP
000000
000000
000000
000000
000000
000000
000000
000000
000000
000000
07F600
07F600
181E00
181E00
180600
180600
300600
300600
300000
300000
300000
300000
300000
300000
300000
300000
300000
300000
300000
300000
300000
300000
300600
300600
180600
180600
1C1C00
1C1C00
07F000
07F000
000000
000000
000000
000000
000000
000000
000000
000000
000000
000000
ENDCHAR

STARTCHAR D
ENCODING 68
SWIDTH 361 0
DWIDTH 18 0
BBX 18 50 0 -10
BITMAP
000000
000000
000000
000000
000000
000000
000000
000000
000000
000000
7FF000
7FF000
181C00
181C00
180600
180600
180600
180600
180600
180600
180600
180600
180600
180600
180600
180600
180600
180600
180600
180600
180600
180600
180600
180600
180600
180600
181C00
181C00
7FF000
7FF000
000000
000000
000000
000000
000000
000000
000000
000000
000000
000000
ENDCHAR

STARTCHAR E
ENCODING 69
SWIDTH 361 0
DWIDTH 18 0
BBX 18 50 0 -10
BITMAP
000000
000000
000000
000000
000000
000000
000000
000000
000000
000000
3FFE00
3FFE00
0C0600
0C0600
0C0600
0C0600
0C0600
0C0600
0C0000
0C0000
0C1000
0C1000
0C1000
0C1000
0FF000
0FF000
0C1000
0C1000
0C1000
0C1000
0C0000
0C0000
0C0600
0C0600
0C0600
0C0600
0C0600
0C0600
3FFE00
3FFE00
000000
000000
000000
000000
000000
000000
000000
000000
000000
000000
ENDCHAR

STARTCHAR F
ENCODING 70
SWIDTH 361 0
DWIDTH 18 0
BBX 18 50 0 -10
BITMAP
000000
000000
000000
000000
000000
000000
000000
000000
000000
000000
3FFF00
3FFF00
0C0300
0C0300
0C0300
0C0300
0C0300
0C0300
0C0000
0C0000
0C1000
0C1000
0C1000
0C1000
0FF000
0FF000
0C1000
0C1000
0C1000
0C1000
0C0000
0C0000
0C0000
0C0000
0C0000
0C0000
0C0000
0C0000
3F8000
3F8000
000000
000000
000000
000000
000000
000000
000000
000000
000000
000000
ENDCHAR

STARTCHAR G
ENCODING 71
SWIDTH 361 0
DWIDTH 18 0
BBX 18 50 0 -10
BITMAP
000000
000000
000000
000000
000000
000000
000000
000000
000000
000000
01FD80
01FD80
070780
070780
060180
060180
0C0180
0C0180
0C0180
0C0000
0C0000
0C0000
0C0000
0C0000
0C0000
0C0000
0C0000
0C0000
0C07C0
0C07C0
0C0180
0C0180
0C0180
0C0180
060180
060180
070300
070300
01FE00
01FE00
000000
000000
000000
000000
000000
000000
000000
000000
000000
000000
ENDCHAR

STARTCHAR H
ENCODING 72
SWIDTH 361 0
DWIDTH 18 0
BBX 18 50 0 -10
BITMAP
000000
000000
000000
000000
000000
000000
000000
000000
000000
000000
3E1F00
3E1F00
180600
180600
180600
180600
180600
180600
180600
180600
180600
180600
180600
180600
1FFE00
1FFE00
180600
180600
180600
180600
180600
180600
180600
180600
180600
180600
180600
180600
3E1F00
3E1F00
000000
000000
000000
000000
000000
000000
000000
000000
000000
000000
ENDCHAR

STARTCHAR I
ENCODING 73
SWIDTH 361 0
DWIDTH 18 0
BBX 18 50 0 -10
BITMAP
000000
000000
000000
000000
000000
000000
000000
000000
000000
000000
1FFE00
1FFE00
00C000
00C000
00C000
00C000
00C000
00C000
00C000
00C000
00C000
00C000
00C000
00C000
00C000
00C000
00C000
00C000
00C000
00C000
00C000
00C000
00C000
00C000
00C000
00C000
00C000
00C000
1FFE00
1FFE00
000000
000000
000000
000000
000000
000000
000000
000000
000000
000000
ENDCHAR

STARTCHAR J
ENCODING 74
SWIDTH 361 0
DWIDTH 18 0
BBX 18 50 0 -10
BITMAP
000000
000000
000000
000000
000000
000000
000000
000000
000000
000000
01FF00
01FF00
001800
001800
001800
001800
001800
001800
001800
001800
001800
001800
001800
001800
001800
001800
001800
001800
001800
001800
301800
301800
301800
301800
301800
301800
183000
183000
07E000
07E000
000000
000000
000000
000000
000000
000000
000000
000000
000000
000000
ENDCHAR

STARTCHAR K
ENCODING 75
SWIDTH 361 0
DWIDTH 18 0
BBX 18 50 0 -10
BITMAP
000000
000000
000000
000000
000000
000000
000000
000000
000000
000000
3F3F00
3F3F00
0C0C00
0C0C00
0C1800
0C1800
0C3000
0C3000
0C6000
0C6000
0CC000
0CC000
0DE000
0DE000
0F6000
0F6000
0E3000
0E3000
0C1800
0C1800
0C1800
0C1800
0C0C00
0C0C00
0C0E00
0C0E00
0C0600
0C0600
3F0F00
3F0F00
000000
000000
000000
000000
000000
000000
000000
000000
000000
000000
ENDCHAR

STARTCHAR L
ENCODING 76
SWIDTH 361 0
DWIDTH 18 0
BBX 18 50 0 -10
BITMAP
000000
000000
000000
000000
000000
000000
000000
000000
000000
000000
1F8000
1F8000
060000
060000
060000
060000
060000
060000
060000
060000
060000
060000
060000
060000
060000
060000
060000
060000
060000
060000
060000
060000
060000
060000
060300
060300
060300
060300
1FFF00
1FFF00
000000
000000
000000
000000
000000
000000
000000
000000
000000
000000
ENDCHAR

STARTCHAR M
ENCODING 77
SWIDTH 361 0
DWIDTH 18 0
BBX 18 50 0 -10
BITMAP
000000
000000
000000
000000
000000
000000
000000
000000
000000
000000
3C0780
0C0600
0C0600
0E0E00
0E0E00
0E0E00
0E0E00
0E0E00
0E0E00
0D1600
0D1600
0D1600
0D1600
0DB600
0DB600
0CA600
0CA600
0CA600
0CA600
0C4600
0C4600
0C4600
0C4600
0C0600
0C0600
0C0600
0C0600
0C0600
3F1F80
3F1F80
000000
000000
000000
000000
000000
000000
000000
000000
000000
000000
ENDCHAR

STARTCHAR N
ENCODING 78
SWIDTH 361 0
DWIDTH 18 0
BBX 18 50 0 -10
BITMAP
000000
000000
000000
000000
000000
000000
000000
000000
000000
000000
7C1F80
7C1F80
1E0600
1E0600
1A0600
1A0600
1B0600
1B0600
190600
190600
198600
198600
188600
188600
18C600
18C600
186600
186600
182600
182600
183600
183600
181600
181600
181E00
181E00
180E00
180E00
7E0E00
7E0E00
000000
000000
000000
000000
000000
000000
000000
000000
000000
000000
ENDCHAR

STARTCHAR O
ENCODING 79
SWIDTH 361 0
DWIDTH 18 0
BBX 18 50 0 -10
BITMAP
000000
000000
000000
000000
000000
000000
000000
000000
000000
000000
07F800
07F800
1C0E00
1C0E00
180600
180600
300300
300300
300300
300300
300300
300300
300300
300300
300300
300300
300300
300300
300300
300300
300300
300300
300300
300300
180600
180600
1C0E00
1C0E00
07F800
07F800
000000
000000
000000
000000
000000
000000
000000
000000
000000
000000
ENDCHAR

STARTCHAR P
ENCODING 80
SWIDTH 361 0
DWIDTH 18 0
BBX 18 50 0 -10
BITMAP
000000
000000
000000
000000
000000
000000
000000
000000
000000
000000
3FFC00
3FFC00
0C0600
0C0600
0C0300
0C0300
0C0300
0C0300
0C0300
0C0300
0C0300
0C0300
0C0600
0C0600
0FFC00
0FFC00
0C0000
0C0000
0C0000
0C0000
0C0000
0C0000
0C0000
0C0000
0C0000
0C0000
0C0000
0C0000
3F8000
3F8000
000000
000000
000000
000000
000000
000000
000000
000000
000000
000000
ENDCHAR

STARTCHAR Q
ENCODING 81
SWIDTH 361 0
DWIDTH 18 0
BBX 18 50 0 -10
BITMAP
000000
000000
000000
000000
000000
000000
000000
000000
000000
000000
07F800
07F800
1C0E00
1C0E00
180600
180600
300300
300300
300300
300300
300300
300300
300300
300300
300300
300300
300300
300300
300300
300300
300300
300300
300300
300300
180600
180600
1C0E00
1C0E00
07F800
07F800
010000
010000
010000
010000
0FC600
0FC600
1C7C00
1C7C00
000000
000000
ENDCHAR

STARTCHAR R
ENCODING 82
SWIDTH 361 0
DWIDTH 18 0
BBX 18 50 0 -10
BITMAP
000000
000000
000000
000000
000000
000000
000000
000000
000000
000000
3FF800
3FF800
0C0C00
0C0C00
0C0600
0C0600
0C0600
0C0600
0C0600
0C0600
0C0C00
0C0C00
0FF800
0FF800
0C6000
0C6000
0C3000
0C3000
0C1800
0C1800
0C1800
0C1800
0C0C00
0C0C00
0C0C00
0C0C00
0C0600
0C0600
3F0700
3F0700
000000
000000
000000
000000
000000
000000
000000
000000
000000
000000
ENDCHAR

STARTCHAR S
ENCODING 83
SWIDTH 361 0
DWIDTH 18 0
BBX 18 50 0 -10
BITMAP
000000
000000
000000
000000
000000
000000
000000
000000
000000
000000
07F600
07F600
0C0E00
0C0E00
180600
180600
180600
180600
1C0000
1C0000
0F8000
0F8000
03F000
03F000
007C00
007C00
000E00
000E00
000600
000600
180600
180600
180600
180600
180600
180600
1E0C00
1E0C00
1BF800
1BF800
000000
000000
000000
000000
000000
000000
000000
000000
000000
000000
ENDCHAR

STARTCHAR T
ENCODING 84
SWIDTH 361 0
DWIDTH 18 0
BBX 18 50 0 -10
BITMAP
000000
000000
000000
000000
000000
000000
000000
000000
000000
000000
3FFF00
3FFF00
30C300
30C300
30C300
30C300
30C300
30C300
30C300
30C300
00C000
00C000
00C000
00C000
00C000
00C000
00C000
00C000
00C000
00C000
00C000
00C000
00C000
00C000
00C000
00C000
00C000
00C000
07F800
07F800
000000
000000
000000
000000
000000
000000
000000
000000
000000
000000
ENDCHAR

STARTCHAR U
ENCODING 85
SWIDTH 361 0
DWIDTH 18 0
BBX 18 50 0 -10
BITMAP
000000
000000
000000
000000
000000
000000
000000
000000
000000
000000
7E1F80
7E1F80
180600
180600
180600
180600
180600
180600
180600
180600
180600
180600
180600
180600
180600
180600
180600
180600
180600
180600
180600
180600
180600
180600
180600
180600
0C0C00
0C0C00
07F800
07F800
000000
000000
000000
000000
000000
000000
000000
000000
000000
000000
ENDCHAR

STARTCHAR V
ENCODING 86
SWIDTH 361 0
DWIDTH 18 0
BBX 18 50 0 -10
BITMAP
000000
000000
000000
000000
000000
000000
000000
000000
000000
000000
7E7F00
7E7F00
180C00
180C00
180C00
180C00
180C00
180C00
0C1800
0C1800
0C1800
0C1800
0C1800
0C1800
063000
063000
063000
063000
063000
063000
036000
036000
036000
036000
036000
036000
01C000
01C000
01C000
01C000
000000
000000
000000
000000
000000
000000
000000
000000
000000
000000
ENDCHAR

STARTCHAR W
ENCODING 87
SWIDTH 361 0
DWIDTH 18 0
BBX 18 50 0 -10
BITMAP
000000
000000
000000
000000
000000
000000
000000
000000
000000
000000
780780
780780
300300
300300
300300
300300
30C300
30C300
30C300
30C300
18C600
18C600
18C600
18C600
19E600
19E600
19E600
19E600
192600
192600
1B3600
1B3600
1B3600
1B3600
0A1400
0A1400
0E1C00
0E1C00
0E1C00
0E1C00
000000
000000
000000
000000
000000
000000
000000
000000
000000
000000
ENDCHAR

STARTCHAR X
ENCODING 88
SWIDTH 361 0
DWIDTH 18 0
BBX 18 50 0 -10
BITMAP
000000
000000
000000
000000
000000
000000
000000
000000
000000
000000
7C1E00
7C1E00
380C00
380C00
1C1800
1C1800
0C3000
0C3000
062000
062000
076000
076000
03C000
03C000
01C000
01C000
03E000
03E000
067000
067000
0C3800
0C3800
0C1800
0C1800
180C00
180C00
380E00
380E00
7C1F00
7C1F00
000000
000000
000000
000000
000000
000000
000000
000000
000000
000000
ENDCHAR

STARTCHAR Y
ENCODING 89
SWIDTH 361 0
DWIDTH 18 0
BBX 18 50 0 -10
BITMAP
000000
000000
000000
000000
000000
000000
000000
000000
000000
000000
7F3F80
7F3F80
1C0600
1C0600
0C0E00
0C0E00
0E0C00
0E0C00
061800
061800
033000
033000
033000
033000
01E000
01E000
01E000
01E000
00C000
00C000
00C000
00C000
00C000
00C000
00C000
00C000
00C000
00C000
07F800
07F800
000000
000000
000000
000000
000000
000000
000000
000000
000000
000000
ENDCHAR

STARTCHAR Z
ENCODING 90
SWIDTH 361 0
DWIDTH 18 0
BBX 18 50 0 -10
BITMAP
000000
000000
000000
000000
000000
000000
000000
000000
000000
000000
1FFE00
1FFE00
180600
180600
180E00
180E00
181C00
181C00
003800
003800
003000
003000
006000
006000
00C000
00C000
018000
018000
030000
030000
070000
070000
0E0600
0E0600
1C0600
1C0600
180600
180600
1FFE00
1FFE00
000000
000000
000000
000000
000000
000000
000000
000000
000000
000000
ENDCHAR

STARTCHAR bracketleft
ENCODING 91
SWIDTH 361 0
DWIDTH 18 0
BBX 18 50 0 -10
BITMAP
000000
000000
000000
000000
01FC00
01FC00
018000
018000
018000
018000
018000
018000
018000
018000
018000
018000
018000
018000
018000
018000
018000
018000
018000
018000
018000
018000
018000
018000
018000
018000
018000
018000
018000
018000
018000
018000
018000
018000
018000
018000
018000
018000
018000
018000
018000
018000
01FC00
01FC00
000000
000000
ENDCHAR

STARTCHAR backslash
ENCODING 92
SWIDTH 361 0
DWIDTH 18 0
BBX 18 50 0 -10
BITMAP
000000
000000
000000
000000
000000
000000
180000
180000
180000
180000
0C0000
0C0000
0C0000
0C0000
060000
060000
060000
060000
030000
030000
030000
030000
018000
018000
018000
018000
018000
018000
00C000
00C000
00C000
00C000
006000
006000
006000
006000
003000
003000
003000
003000
001800
001800
001800
001800
000000
000000
000000
000000
000000
000000
ENDCHAR

STARTCHAR bracketright
ENCODING 93
SWIDTH 361 0
DWIDTH 18 0
BBX 18 50 0 -10
BITMAP
000000
000000
000000
000000
07F000
07F000
003000
003000
003000
003000
003000
003000
003000
003000
003000
003000
003000
003000
003000
003000
003000
003000
003000
003000
003000
003000
003000
003000
003000
003000
003000
003000
003000
003000
003000
003000
003000
003000
003000
003000
003000
003000
003000
003000
003000
003000
07F000
07F000
000000
000000
ENDCHAR

STARTCHAR asciicircum
ENCODING 94
SWIDTH 361 0
DWIDTH 18 0
BBX 18 50 0 -10
BITMAP
000000
000000
000000
000000
000000
000000
000000
000000
000000
000000
000000
000000
000000
000000
000000
000000
000000
000000
00C000
00C000
03F000
03F000
073800
073800
1C0E00
1C0E00
000000
000000
000000
000000
000000
000000
000000
000000
000000
000000
000000
000000
000000
000000
000000
000000
000000
000000
000000
000000
000000
000000
000000
000000
ENDCHAR

STARTCHAR underscore
ENCODING 95
SWIDTH 361 0
DWIDTH 18 0
BBX 18 50 0 -10
BITMAP
000000
000000
000000
000000
000000
000000
000000
000000
000000
000000
000000
000000
000000
000000
000000
000000
000000
000000
000000
000000
000000
000000
000000
000000
000000
000000
000000
000000
000000
000000
000000
000000
000000
000000
000000
000000
000000
000000
000000
000000
FFFF80
FFFF80
000000
000000
000000
000000
000000
000000
000000
000000
ENDCHAR

STARTCHAR quoteleft
ENCODING 96
SWIDTH 361 0
DWIDTH 18 0
BBX 18 50 0 -10
BITMAP
000000
000000
000000
000000
000000
000000
078000
078000
03C000
03C000
01C000
01C000
00E000
00E000
006000
006000
003000
003000
000000
000000
000000
000000
000000
000000
000000
000000
000000
000000
000000
000000
000000
000000
000000
000000
000000
000000
000000
000000
000000
000000
000000
000000
000000
000000
000000
000000
000000
000000
000000
000000
ENDCHAR

STARTCHAR a
ENCODING 97
SWIDTH 361 0
DWIDTH 18 0
BBX 18 50 0 -10
BITMAP
000000
000000
000000
000000
000000
000000
000000
000000
000000
000000
000000
000000
000000
000000
000000
000000
07F800
07F800
181C00
181C00
180C00
180C00
000C00
000C00
07FC00
07FC00
1C0C00
1C0C00
380C00
380C00
300C00
300C00
300C00
300C00
381C00
381C00
1C6C00
1C6C00
0FCE00
0FCE00
000000
000000
000000
000000
000000
000000
000000
000000
000000
000000
ENDCHAR

STARTCHAR b
ENCODING 98
SWIDTH 361 0
DWIDTH 18 0
BBX 18 50 0 -10
BITMAP
000000
000000
000000
000000
000000
000000
000000
000000
380000
380000
180000
180000
180000
180000
180000
180000
19F000
19F000
1B1C00
1B1C00
1C0C00
1C0C00
1C0E00
1C0E00
180600
180600
180600
180600
180600
180600
180600
180600
1C0E00
1C0E00
1C0C00
1C0C00
1B1C00
1B1C00
39F000
39F000
000000
000000
000000
000000
000000
000000
000000
000000
000000
000000
ENDCHAR

STARTCHAR c
ENCODING 99
SWIDTH 361 0
DWIDTH 18 0
BBX 18 50 0 -10
BITMAP
000000
000000
000000
000000
000000
000000
000000
000000
000000
000000
000000
000000
000000
000000
000000
000000
03F600
03F600
0E1E00
0E1E00
0C0E00
0C0E00
1C0600
1C0600
180600
180600
180000
180000
180000
180000
180000
180000
1C0600
1C0600
0C0600
0C0600
0E1C00
0E1C00
03F800
03F800
000000
000000
000000
000000
000000
000000
000000
000000
000000
000000
ENDCHAR

STARTCHAR d
ENCODING 100
SWIDTH 361 0
DWIDTH 18 0
BBX 18 50 0 -10
BITMAP
000000
000000
000000
000000
000000
000000
000000
000000
000E00
000E00
000600
000600
000600
000600
000600
000600
03E600
03E600
0E3600
0E3600
0C0E00
0C0E00
1C0E00
1C0E00
180600
180600
180600
180600
180600
180600
180600
180600
1C0E00
1C0E00
0C0E00
0C0E00
0E3600
0E3600
03E700
03E700
000000
000000
000000
000000
000000
000000
000000
000000
000000
000000
ENDCHAR

STARTCHAR e
ENCODING 101
SWIDTH 361 0
DWIDTH 18 0
BBX 18 50 0 -10
BITMAP
000000
000000
000000
000000
000000
000000
000000
000000
000000
000000
000000
000000
000000
000000
000000
000000
03F000
03F000
0FFC00
0E1C00
0C0C00
0C0C00
1C0E00
1C0E00
180600
180600
1FFE00
1FFE00
180000
180000
180000
180000
1C0E00
1C0E00
0C0C00
0C0C00
0E1C00
0E1C00
03F000
03F000
000000
000000
000000
000000
000000
000000
000000
000000
000000
000000
ENDCHAR

STARTCHAR f
ENCODING 102
SWIDTH 361 0
DWIDTH 18 0
BBX 18 50 0 -10
BITMAP
000000
000000
000000
000000
000000
000000
000000
01F800
01F800
030000
030000
030000
030000
030000
030000
030000
3FF800
3FF800
030000
030000
030000
030000
030000
030000
030000
030000
030000
030000
030000
030000
030000
030000
030000
030000
030000
030000
030000
030000
3FF800
3FF800
000000
000000
000000
000000
000000
000000
000000
000000
000000
000000
ENDCHAR

STARTCHAR g
ENCODING 103
SWIDTH 361 0
DWIDTH 18 0
BBX 18 50 0 -10
BITMAP
000000
000000
000000
000000
000000
000000
000000
000000
000000
000000
000000
000000
000000
000000
000000
000000
03E700
03E700
0E3E00
0E3E00
0C0E00
0C0E00
180600
180600
180600
180600
180600
180600
180600
180600
180600
180600
180600
180600
0C0E00
0C0E00
0E3E00
0E3E00
03F600
03F600
000600
000600
000600
000600
000C00
000C00
003800
003800
1FE000
1FE000
ENDCHAR

STARTCHAR h
ENCODING 104
SWIDTH 361 0
DWIDTH 18 0
BBX 18 50 0 -10
BITMAP
000000
000000
000000
000000
000000
000000
000000
000000
380000
380000
180000
180000
180000
180000
180000
180000
19F800
19F800
1F1C00
1F1C00
1C0C00
1C0C00
180C00
180C00
180C00
180C00
180C00
180C00
180C00
180C00
180C00
180C00
180C00
180C00
180C00
180C00
180C00
180C00
3C1E00
3C1E00
000000
000000
000000
000000
000000
000000
000000
000000
000000
000000
ENDCHAR

STARTCHAR i
ENCODING 105
SWIDTH 362 0
DWIDTH 18 0
BBX 18 50 0 -10
BITMAP
000000
000000
000000
000000
00C000
00C000
00C000
00C000
00C000
00C000
000000
000000
000000
000000
000000
000000
1FC000
1FC000
00C000
00C000
00C000
00C000
00C000
00C000
00C000
00C000
00C000
00C000
00C000
00C000
00C000
00C000
00C000
00C000
00C000
00C000
00C000
00C000
1FFE00
1FFE00
000000
000000
000000
000000
000000
000000
000000
000000
000000
000000
ENDCHAR

STARTCHAR j
ENCODING 106
SWIDTH 361 0
DWIDTH 18 0
BBX 18 50 0 -10
BITMAP
000000
000000
000000
000000
006000
006000
006000
006000
006000
006000
000000
000000
000000
000000
000000
000000
1FE000
1FE000
006000
006000
006000
006000
006000
006000
006000
006000
006000
006000
006000
006000
006000
006000
006000
006000
006000
006000
006000
006000
006000
006000
006000
006000
00E000
00E000
00C000
00C000
01C000
01C000
1F0000
1F0000
ENDCHAR

STARTCHAR k
ENCODING 107
SWIDTH 361 0
DWIDTH 18 0
BBX 18 50 0 -10
BITMAP
000000
000000
000000
000000
000000
000000
000000
000000
1C0000
1C0000
0C0000
0C0000
0C0000
0C0000
0C0000
0C0000
0C0700
0C0700
0C0C00
0C0C00
0C1800
0C1800
0C3000
0C3000
0C6000
0C6000
0FC000
0FC000
0C6000
0C6000
0C3000
0C3000
0C1800
0C1800
0C0C00
0C0C00
0C0600
0C0600
1E0F00
1E0F00
000000
000000
000000
000000
000000
000000
000000
000000
000000
000000
ENDCHAR

STARTCHAR l
ENCODING 108
SWIDTH 361 0
DWIDTH 18 0
BBX 18 50 0 -10
BITMAP
000000
000000
000000
000000
000000
000000
000000
000000
1FC000
1FC000
00C000
00C000
00C000
00C000
00C000
00C000
00C000
00C000
00C000
00C000
00C000
00C000
00C000
00C000
00C000
00C000
00C000
00C000
00C000
00C000
00C000
00C000
00C000
00C000
00C000
00C000
00C000
00C000
1FFE00
1FFE00
000000
000000
000000
000000
000000
000000
000000
000000
000000
000000
ENDCHAR

STARTCHAR m
ENCODING 109
SWIDTH 361 0
DWIDTH 18 0
BBX 18 50 0 -10
BITMAP
000000
000000
000000
000000
000000
000000
000000
000000
000000
000000
000000
000000
000000
000000
000000
000000
3BBC00
3BBC00
1CE600
1CE600
18C600
18C600
18C600
18C600
18C600
18C600
18C600
18C600
18C600
18C600
18C600
18C600
18C600
18C600
18C600
18C600
18C600
18C600
39E700
39E700
000000
000000
000000
000000
000000
000000
000000
000000
000000
000000
ENDCHAR

STARTCHAR n
ENCODING 110
SWIDTH 361 0
DWIDTH 18 0
BBX 18 50 0 -10
BITMAP
000000
000000
000000
000000
000000
000000
000000
000000
000000
000000
000000
000000
000000
000000
000000
000000
39F800
39F800
1F1C00
1F1C00
1C0C00
1C0C00
180C00
180C00
180C00
180C00
180C00
180C00
180C00
180C00
180C00
180C00
180C00
180C00
180C00
180C00
180C00
180C00
3E3E00
3E3E00
000000
000000
000000
000000
000000
000000
000000
000000
000000
000000
ENDCHAR

STARTCHAR o
ENCODING 111
SWIDTH 361 0
DWIDTH 18 0
BBX 18 50 0 -10
BITMAP
000000
000000
000000
000000
000000
000000
000000
000000
000000
000000
000000
000000
000000
000000
000000
000000
03F800
03F800
0F1E00
0F1E00
0C0600
0C0600
1C0700
1C0700
180300
180300
180300
180300
180300
180300
180300
180300
1C0700
1C0700
0C0600
0C0600
0F1E00
0F1E00
03F800
03F800
000000
000000
000000
000000
000000
000000
000000
000000
000000
000000
ENDCHAR

STARTCHAR p
ENCODING 112
SWIDTH 361 0
DWIDTH 18 0
BBX 18 50 0 -10
BITMAP
000000
000000
000000
000000
000000
000000
000000
000000
000000
000000
000000
000000
000000
000000
000000
000000
3BF000
3BF000
1E1C00
1E1C00
1C0C00
1C0C00
180600
180600
180600
180600
180600
180600
180600
180600
180600
180600
180600
180600
1C0C00
1C0C00
1E1C00
1E1C00
1BF000
1BF000
180000
180000
180000
180000
180000
180000
180000
180000
3C0000
3C0000
ENDCHAR

STARTCHAR q
ENCODING 113
SWIDTH 361 0
DWIDTH 18 0
BBX 18 50 0 -10
BITMAP
000000
000000
000000
000000
000000
000000
000000
000000
000000
000000
000000
000000
000000
000000
000000
000000
07EE00
07EE00
1C3C00
1C3C00
181C00
181C00
300C00
300C00
300C00
300C00
300C00
300C00
300C00
300C00
300C00
300C00
300C00
300C00
181C00
181C00
1C3C00
1C3C00
07EC00
07EC00
000C00
000C00
000C00
000C00
000C00
000C00
000C00
000C00
001E00
001E00
ENDCHAR

STARTCHAR r
ENCODING 114
SWIDTH 361 0
DWIDTH 18 0
BBX 18 50 0 -10
BITMAP
000000
000000
000000
000000
000000
000000
000000
000000
000000
000000
000000
000000
000000
000000
000000
000000
1E7E00
1E7E00
06C300
06C300
070300
070300
070000
070000
060000
060000
060000
060000
060000
060000
060000
060000
060000
060000
060000
060000
060000
060000
1FC000
1FC000
000000
000000
000000
000000
000000
000000
000000
000000
000000
000000
ENDCHAR

STARTCHAR s
ENCODING 115
SWIDTH 361 0
DWIDTH 18 0
BBX 18 50 0 -10
BITMAP
000000
000000
000000
000000
000000
000000
000000
000000
000000
000000
000000
000000
000000
000000
000000
000000
07F200
07F200
0C1A00
0C1A00
180E00
180E00
1C0600
1C0600
0F0000
0F0000
03E000
03E000
003800
003800
180E00
180E00
180600
180600
1C0600
1C0600
160C00
160C00
13F800
13F800
000000
000000
000000
000000
000000
000000
000000
000000
000000
000000
ENDCHAR

STARTCHAR t
ENCODING 116
SWIDTH 361 0
DWIDTH 18 0
BBX 18 50 0 -10
BITMAP
000000
000000
000000
000000
000000
000000
000000
000000
000000
000000
060000
060000
060000
060000
060000
060000
3FFC00
3FFC00
060000
060000
060000
060000
060000
060000
060000
060000
060000
060000
060000
060000
060000
060000
060000
060000
060000
060000
070E00
070E00
03FC00
03FC00
000000
000000
000000
000000
000000
000000
000000
000000
000000
000000
ENDCHAR

STARTCHAR u
ENCODING 117
SWIDTH 361 0
DWIDTH 18 0
BBX 18 50 0 -10
BITMAP
000000
000000
000000
000000
000000
000000
000000
000000
000000
000000
000000
000000
000000
000000
000000
000000
381C00
381C00
180C00
180C00
180C00
180C00
180C00
180C00
180C00
180C00
180C00
180C00
180C00
180C00
180C00
180C00
180C00
180C00
181C00
181C00
1C3C00
1C3C00
0FEE00
0FEE00
000000
000000
000000
000000
000000
000000
000000
000000
000000
000000
ENDCHAR

STARTCHAR v
ENCODING 118
SWIDTH 361 0
DWIDTH 18 0
BBX 18 50 0 -10
BITMAP
000000
000000
000000
000000
000000
000000
000000
000000
000000
000000
000000
000000
000000
000000
000000
000000
3C0F00
3C0F00
180600
180600
180600
180600
0C0C00
0C0C00
0C0C00
0C0C00
061800
061800
061800
061800
033000
033000
033000
033000
01E000
01E000
01C000
01C000
00C000
00C000
000000
000000
000000
000000
000000
000000
000000
000000
000000
000000
ENDCHAR

STARTCHAR w
ENCODING 119
SWIDTH 361 0
DWIDTH 18 0
BBX 18 50 0 -10
BITMAP
000000
000000
000000
000000
000000
000000
000000
000000
000000
000000
000000
000000
000000
000000
000000
000000
700700
700700
600300
600300
608300
608300
608300
608300
31C600
31C600
31C600
31C600
336600
336600
322600
322600
363600
363600
1C1C00
1C1C00
180C00
180C00
180C00
180C00
000000
000000
000000
000000
000000
000000
000000
000000
000000
000000
ENDCHAR

STARTCHAR x
ENCODING 120
SWIDTH 361 0
DWIDTH 18 0
BBX 18 50 0 -10
BITMAP
000000
000000
000000
000000
000000
000000
000000
000000
000000
000000
000000
000000
000000
000000
000000
000000
1E1E00
1E1E00
0C0C00
0C0C00
061800
061800
033000
033000
01E000
01E000
00C000
00C000
01E000
01E000
033000
033000
061800
061800
0C1C00
0C1C00
1C0E00
1C0E00
3E1F00
3E1F00
000000
000000
000000
000000
000000
000000
000000
000000
000000
000000
ENDCHAR

STARTCHAR y
ENCODING 121
SWIDTH 361 0
DWIDTH 18 0
BBX 18 50 0 -10
BITMAP
000000
000000
000000
000000
000000
000000
000000
000000
000000
000000
000000
000000
000000
000000
000000
000000
3E0F00
3E0F00
1C0600
1C0600
0C0E00
0C0E00
0C0C00
0C0C00
0E1C00
0E1C00
061800
061800
063000
063000
033000
033000
036000
036000
01C000
01C000
01C000
01C000
018000
018000
030000
030000
030000
030000
060000
060000
060000
060000
1F0000
1F0000
ENDCHAR

STARTCHAR z
ENCODING 122
SWIDTH 361 0
DWIDTH 18 0
BBX 18 50 0 -10
BITMAP
000000
000000
000000
000000
000000
000000
000000
000000
000000
000000
000000
000000
000000
000000
000000
000000
1FFE00
1FFE00
180E00
180E00
181C00
181C00
183800
183800
007000
007000
00E000
00E000
01C000
01C000
038000
038000
070600
070600
0E0600
0E0600
1C0600
1C0600
1FFE00
1FFE00
000000
000000
000000
000000
000000
000000
000000
000000
000000
000000
ENDCHAR

STARTCHAR braceleft
ENCODING 123
SWIDTH 361 0
DWIDTH 18 0
BBX 18 50 0 -10
BITMAP
000000
000000
000000
000000
007800
007800
00C000
00C000
00C000
00C000
00C000
00C000
00C000
00C000
00C000
00C000
00C000
00C000
00C000
00C000
00C000
00C000
00C000
00C000
070000
070000
00C000
00C000
00C000
00C000
00C000
00C000
00C000
00C000
00C000
00C000
00C000
00C000
00C000
00C000
00C000
00C000
00C000
00C000
00C000
00C000
007800
007800
000000
000000
ENDCHAR

STARTCHAR bar
ENCODING 124
SWIDTH 361 0
DWIDTH 18 0
BBX 18 50 0 -10
BITMAP
000000
000000
00C000
00C000
00C000
00C000
00C000
00C000
00C000
00C000
00C000
00C000
00C000
00C000
00C000
00C000
00C000
00C000
00C000
00C000
00C000
00C000
00C000
00C000
00C000
00C000
00C000
00C000
00C000
00C000
00C000
00C000
00C000
00C000
00C000
00C000
00C000
00C000
00C000
00C000
00C000
00C000
00C000
00C000
00C000
00C000
000000
000000
000000
000000
ENDCHAR

STARTCHAR braceright
ENCODING 125
SWIDTH 361 0
DWIDTH 18 0
BBX 18 50 0 -10
BITMAP
000000
000000
000000
000000
078000
078000
00C000
00C000
00C000
00C000
00C000
00C000
00C000
00C000
00C000
00C000
00C000
00C000
00C000
00C000
00C000
00C000
00C000
00C000
003800
003800
00C000
00C000
00C000
00C000
00C000
00C000
00C000
00C000
00C000
00C000
00C000
00C000
00C000
00C000
00C000
00C000
00C000
00C000
00C000
00C000
078000
078000
000000
000000
ENDCHAR

STARTCHAR asciitilde
ENCODING 126
SWIDTH 361 0
DWIDTH 18 0
BBX 18 50 0 -10
BITMAP
000000
000000
000000
000000
000000
000000
000000
000000
000000
000000
000000
000000
000000
000000
000000
000000
000000
000000
000000
000000
070600
070600
0FC600
0FC600
18FC00
18FC00
183800
183800
000000
000000
000000
000000
000000
000000
000000
000000
000000
000000
000000
000000
000000
000000
000000
000000
000000
000000
000000
000000
000000
000000
ENDCHAR

STARTCHAR space
ENCODING 160
SWIDTH 361 0
DWIDTH 18 0
BBX 18 50 0 -10
BITMAP
000000
000000
000000
000000
000000
000000
000000
000000
000000
000000
000000
000000
000000
000000
000000
000000
000000
000000
000000
000000
000000
000000
000000
000000
000000
000000
000000
000000
000000
000000
000000
000000
000000
000000
000000
000000
000000
000000
000000
000000
000000
000000
000000
000000
000000
000000
000000
000000
000000
000000
ENDCHAR

STARTCHAR afii10023
ENCODING 161
SWIDTH 361 0
DWIDTH 18 0
BBX 18 50 0 -10
BITMAP
0E1C00
0E1C00
0E1C00
0E1C00
000000
000000
000000
000000
000000
000000
3FFE00
3FFE00
0C0600
0C0600
0C0600
0C0600
0C0600
0C0600
0C0000
0C0000
0C1000
0C1000
0C1000
0C1000
0FF000
0FF000
0C1000
0C1000
0C1000
0C1000
0C0000
0C0000
0C0600
0C0600
0C0600
0C0600
0C0600
0C0600
3FFE00
3FFE00
000000
000000
000000
000000
000000
000000
000000
000000
000000
000000
ENDCHAR

STARTCHAR afii10051
ENCODING 162
SWIDTH 361 0
DWIDTH 18 0
BBX 18 50 0 -10
BITMAP
000000
000000
000000
000000
000000
000000
000000
000000
000000
000000
FFF000
FFF000
C63000
C63000
C63000
C63000
C63000
C63000
060000
060000
060000
060000
061C00
067F00
06FF80
07E380
0781C0
0700C0
0700C0
0600C0
0600C0
0600C0
0600C0
0600C0
0600C0
0601C0
060180
060380
3FCF00
3FCE00
000000
000000
000000
000000
000000
000000
000000
000000
000000
000000
ENDCHAR

STARTCHAR afii10052
ENCODING 163
SWIDTH 361 0
DWIDTH 18 0
BBX 18 50 0 -10
BITMAP
007800
007800
01E000
01E000
018000
018000
000000
000000
000000
000000
3FFFC0
3FFFC0
0600C0
0600C0
0600C0
0600C0
0600C0
060000
060000
060000
060000
060000
060000
060000
060000
060000
060000
060000
060000
060000
060000
060000
060000
060000
060000
060000
060000
060000
3FC000
3FC000
000000
000000
000000
000000
000000
000000
000000
000000
000000
000000
ENDCHAR

STARTCHAR afii10053
ENCODING 164
SWIDTH 361 0
DWIDTH 18 0
BBX 18 50 0 -10
BITMAP
000000
000000
000000
000000
000000
000000
000000
000000
000000
000000
07F600
07F600
181E00
181E00
180600
180600
300600
300600
300000
300000
300000
300000
300000
3FE000
3FE000
300000
300000
300000
300000
300000
300000
300000
300600
300600
180600
180600
1C1C00
1C1C00
07F000
07F000
000000
000000
000000
000000
000000
000000
000000
000000
000000
000000
ENDCHAR

STARTCHAR afii10054
ENCODING 165
SWIDTH 361 0
DWIDTH 18 0
BBX 18 50 0 -10
BITMAP
000000
000000
000000
000000
000000
000000
000000
000000
000000
000000
07F600
07F600
0C0E00
0C0E00
180600
180600
180600
180600
1C0000
1C0000
0F8000
0F8000
03F000
03F000
007C00
007C00
000E00
000E00
000600
000600
180600
180600
180600
180600
180600
180600
1E0C00
1E0C00
1BF800
1BF800
000000
000000
000000
000000
000000
000000
000000
000000
000000
000000
ENDCHAR

STARTCHAR afii10055
ENCODING 166
SWIDTH 361 0
DWIDTH 18 0
BBX 18 50 0 -10
BITMAP
000000
000000
000000
000000
000000
000000
000000
000000
000000
000000
1FFE00
1FFE00
00C000
00C000
00C000
00C000
00C000
00C000
00C000
00C000
00C000
00C000
00C000
00C000
00C000
00C000
00C000
00C000
00C000
00C000
00C000
00C000
00C000
00C000
00C000
00C000
00C000
00C000
1FFE00
1FFE00
000000
000000
000000
000000
000000
000000
000000
000000
000000
000000
ENDCHAR

STARTCHAR afii10056
ENCODING 167
SWIDTH 361 0
DWIDTH 18 0
BBX 18 50 0 -10
BITMAP
0E1C00
0E1C00
0E1C00
0E1C00
000000
000000
000000
000000
000000
000000
1FFE00
1FFE00
00C000
00C000
00C000
00C000
00C000
00C000
00C000
00C000
00C000
00C000
00C000
00C000
00C000
00C000
00C000
00C000
00C000
00C000
00C000
00C000
00C000
00C000
00C000
00C000
00C000
00C000
1FFE00
1FFE00
000000
000000
000000
000000
000000
000000
000000
000000
000000
000000
ENDCHAR

STARTCHAR afii10057
ENCODING 168
SWIDTH 361 0
DWIDTH 18 0
BBX 18 50 0 -10
BITMAP
000000
000000
000000
000000
000000
000000
000000
000000
000000
000000
01FF00
01FF00
001800
001800
001800
001800
001800
001800
001800
001800
001800
001800
001800
001800
001800
001800
001800
001800
001800
001800
301800
301800
301800
301800
301800
301800
183000
183000
07E000
07E000
000000
000000
000000
000000
000000
000000
000000
000000
000000
000000
ENDCHAR

STARTCHAR afii10058
ENCODING 169
SWIDTH 361 0
DWIDTH 18 0
BBX 18 50 0 -10
BITMAP
000000
000000
000000
000000
000000
000000
000000
000000
000000
000000
0FFE00
0FFE00
061800
061800
061800
061800
061800
061800
061800
061800
061800
061800
061800
061800
061E00
061F80
061980
0618C0
0618C0
0618C0
0618C0
0618C0
0618C0
0618C0
0618C0
0618C0
6618C0
661980
7C7F80
387E00
000000
000000
000000
000000
000000
000000
000000
000000
000000
000000
ENDCHAR

STARTCHAR afii10059
ENCODING 170
SWIDTH 361 0
DWIDTH 18 0
BBX 18 50 0 -10
BITMAP
000000
000000
000000
000000
000000
000000
000000
000000
000000
000000
78F000
78F000
306000
306000
306000
306000
306000
306000
306000
306000
306000
306000
306000
3FFE00
3FFF80
306780
3061C0
3061C0
3060C0
3060C0
3060C0
3060C0
3060C0
3060C0
3060C0
3061C0
3061C0
306780
78FF80
78FE00
000000
000000
000000
000000
000000
000000
000000
000000
000000
000000
ENDCHAR

STARTCHAR afii10060
ENCODING 171
SWIDTH 361 0
DWIDTH 18 0
BBX 18 50 0 -10
BITMAP
000000
000000
000000
000000
000000
000000
000000
000000
000000
000000
FFFC00
FFFC00
C30C00
C30C00
C30C00
C30C00
C30C00
C30C00
C30C00
030000
030000
030000
031C00
037E00
03FF00
03C300
038380
030180
030180
030180
030180
030180
030180
030180
030180
030180
030180
030180
0FC7C0
0FC7C0
000000
000000
000000
000000
000000
000000
000000
000000
000000
000000
ENDCHAR

STARTCHAR afii10061
ENCODING 172
SWIDTH 361 0
DWIDTH 18 0
BBX 18 50 0 -10
BITMAP
007C00
007C00
00F000
00F000
03C000
03C000
030000
030000
000000
000000
3E0700
3E0F80
180D80
181980
181800
183800
183000
187000
186000
18E000
18C000
19C000
198000
1F8000
1F0000
1F8000
19C000
18E000
186000
187000
183000
183800
183800
181800
181C00
181C00
180C00
180E00
3E0780
3E0780
000000
000000
000000
000000
000000
000000
000000
000000
000000
000000
ENDCHAR

STARTCHAR hyphen
ENCODING 173
SWIDTH 361 0
DWIDTH 18 0
BBX 18 50 0 -10
BITMAP
000000
000000
000000
000000
000000
000000
000000
000000
000000
000000
000000
000000
000000
000000
000000
000000
000000
000000
000000
000000
000000
000000
000000
000000
3FFF00
3FFF00
000000
000000
000000
000000
000000
000000
000000
000000
000000
000000
000000
000000
000000
000000
000000
000000
000000
000000
000000
000000
000000
000000
000000
000000
ENDCHAR

STARTCHAR afii10062
ENCODING 174
SWIDTH 361 0
DWIDTH 18 0
BBX 18 50 0 -10
BITMAP
000000
000000
000000
000000
030C00
030C00
039C00
01F800
00F000
000000
FC0FC0
FC0FC0
300300
300300
380700
180600
1C0600
0C0E00
0C0C00
0E0C00
060C00
061C00
071800
031800
033800
03B000
01B000
01F000
00E000
00E000
00C000
00C000
01C000
618000
618000
638000
630000
670000
7E0000
3C0000
000000
000000
000000
000000
000000
000000
000000
000000
000000
000000
ENDCHAR

STARTCHAR afii10145
ENCODING 175
SWIDTH 361 0
DWIDTH 18 0
BBX 18 50 0 -10
BITMAP
000000
000000
000000
000000
000000
000000
000000
000000
000000
000000
3E1F00
3E1F00
180600
180600
180600
180600
180600
180600
180600
180600
180600
180600
180600
180600
180600
180600
180600
180600
180600
180600
180600
180600
180600
180600
180600
180600
180600
180600
3FFF00
3FFF00
00C000
00C000
00C000
00C000
00C000
000000
000000
000000
000000
000000
ENDCHAR

STARTCHAR afii10017
ENCODING 176
SWIDTH 361 0
DWIDTH 18 0
BBX 18 50 0 -10
BITMAP
000000
000000
000000
000000
000000
000000
000000
000000
000000
000000
00C000
00C000
00C000
00C000
01E000
01E000
033000
033000
033000
033000
033000
033000
061800
061800
061800
061800
0C0C00
0C0C00
0FFC00
0FFC00
0C0C00
0C0C00
180600
180600
180600
180600
180600
180600
7E1F80
7E1F80
000000
000000
000000
000000
000000
000000
000000
000000
000000
000000
ENDCHAR

STARTCHAR afii10018
ENCODING 177
SWIDTH 361 0
DWIDTH 18 0
BBX 18 50 0 -10
BITMAP
000000
000000
000000
000000
000000
000000
000000
000000
000000
000000
3FFE00
3FFE00
0C0600
0C0600
0C0600
0C0600
0C0600
0C0000
0C0000
0C0000
0C0000
0C0000
0FFC00
0FFC00
0C0600
0C0600
0C0300
0C0300
0C0300
0C0300
0C0300
0C0300
0C0300
0C0300
0C0300
0C0300
0C0E00
0C0E00
3FF800
3FF800
000000
000000
000000
000000
000000
000000
000000
000000
000000
000000
ENDCHAR

STARTCHAR afii10019
ENCODING 178
SWIDTH 361 0
DWIDTH 18 0
BBX 18 50 0 -10
BITMAP
000000
000000
000000
000000
000000
000000
000000
000000
000000
000000
3FF800
3FF800
0C0E00
0C0E00
0C0300
0C0300
0C0300
0C0300
0C0300
0C0300
0C0600
0C0600
0FFC00
0FFC00
0C0600
0C0600
0C0300
0C0300
0C0300
0C0300
0C0300
0C0300
0C0300
0C0300
0C0300
0C0300
0C0E00
0C0E00
3FF800
3FF800
000000
000000
000000
000000
000000
000000
000000
000000
000000
000000
ENDCHAR

STARTCHAR afii10020
ENCODING 179
SWIDTH 361 0
DWIDTH 18 0
BBX 18 50 0 -10
BITMAP
000000
000000
000000
000000
000000
000000
000000
000000
000000
000000
7FFF00
7FFF00
0C0300
0C0300
0C0300
0C0300
0C0300
0C0300
0C0000
0C0000
0C0000
0C0000
0C0000
0C0000
0C0000
0C0000
0C0000
0C0000
0C0000
0C0000
0C0000
0C0000
0C0000
0C0000
0C0000
0C0000
0C0000
0C0000
7F8000
7F8000
000000
000000
000000
000000
000000
000000
000000
000000
000000
000000
ENDCHAR

STARTCHAR afii10021
ENCODING 180
SWIDTH 361 0
DWIDTH 18 0
BBX 18 50 0 -10
BITMAP
000000
000000
000000
000000
000000
000000
000000
000000
000000
000000
1FFF80
1FFF80
060600
060600
060600
060600
060600
060600
060600
060600
060600
060600
060600
060600
060600
060600
060600
060600
060600
060600
060600
060600
0C0600
0C0600
0C0600
180600
180600
7FFF80
7FFF80
7FFF80
600180
600180
600180
600180
600180
600180
600180
000000
000000
000000
ENDCHAR

STARTCHAR afii10022
ENCODING 181
SWIDTH 361 0
DWIDTH 18 0
BBX 18 50 0 -10
BITMAP
000000
000000
000000
000000
000000
000000
000000
000000
000000
000000
3FFE00
3FFE00
0C0600
0C0600
0C0600
0C0600
0C0600
0C0600
0C0000
0C0000
0C1000
0C1000
0C1000
0C1000
0FF000
0FF000
0C1000
0C1000
0C1000
0C1000
0C0000
0C0000
0C0600
0C0600
0C0600
0C0600
0C0600
0C0600
3FFE00
3FFE00
000000
000000
000000
000000
000000
000000
000000
000000
000000
000000
ENDCHAR

STARTCHAR afii10024
ENCODING 182
SWIDTH 361 0
DWIDTH 18 0
BBX 18 50 0 -10
BITMAP
000000
000000
000000
000000
000000
000000
000000
000000
000000
000000
63F180
F3F3C0
F0C3C0
98C640
98C600
1CCE00
0CCC00
0CCC00
0EDC00
06D800
06D800
07F800
03F000
03F000
03F000
07F800
07F800
06D800
0EDC00
0CCC00
0CCC00
1CCE00
18C600
18C600
18C600
38C700
30C300
F0C3C0
F3F3C0
E3F1C0
000000
000000
000000
000000
000000
000000
000000
000000
000000
000000
ENDCHAR

STARTCHAR afii10025
ENCODING 183
SWIDTH 361 0
DWIDTH 18 0
BBX 18 50 0 -10
BITMAP
000000
000000
000000
000000
000000
000000
000000
000000
000000
000000
37F000
37F000
3C0C00
3C0C00
300C00
300C00
300600
300600
000600
000600
000600
000C00
000C00
01F800
01F800
000C00
000C00
000600
000600
000600
000600
000600
300600
300600
300C00
300C00
1C1C00
1C1C00
07F000
07F000
000000
000000
000000
000000
000000
000000
000000
000000
000000
000000
ENDCHAR

STARTCHAR afii10026
ENCODING 184
SWIDTH 361 0
DWIDTH 18 0
BBX 18 50 0 -10
BITMAP
000000
000000
000000
000000
000000
000000
000000
000000
000000
000000
7E0780
7E0780
180600
180E00
180E00
181E00
181E00
181E00
183600
183600
186600
186600
186600
18C600
18C600
198600
198600
198600
1B0600
1B0600
1E0600
1E0600
1E0600
1C0600
1C0600
180600
180600
180600
781F80
781F80
000000
000000
000000
000000
000000
000000
000000
000000
000000
000000
ENDCHAR

STARTCHAR afii10027
ENCODING 185
SWIDTH 361 0
DWIDTH 18 0
BBX 18 50 0 -10
BITMAP
000000
000000
000000
061800
061800
073800
03F000
01E000
000000
000000
7E0780
7E0780
180600
180E00
180E00
181E00
181E00
181E00
183600
183600
186600
186600
186600
18C600
18C600
198600
198600
198600
1B0600
1B0600
1E0600
1E0600
1E0600
1C0600
1C0600
180600
180600
180600
781F80
781F80
000000
000000
000000
000000
000000
000000
000000
000000
000000
000000
ENDCHAR

STARTCHAR afii10028
ENCODING 186
SWIDTH 361 0
DWIDTH 18 0
BBX 18 50 0 -10
BITMAP
000000
000000
000000
000000
000000
000000
000000
000000
000000
000000
3E0000
3E0700
180F80
181D80
181980
183800
183000
187000
186000
18E000
18C000
19C000
198000
1F8000
1F0000
1F8000
19C000
18E000
186000
187000
183000
183800
183800
181800
181C00
181C00
180C00
180E00
3E0780
3E0780
000000
000000
000000
000000
000000
000000
000000
000000
000000
000000
ENDCHAR

STARTCHAR afii10029
ENCODING 187
SWIDTH 361 0
DWIDTH 18 0
BBX 18 50 0 -10
BITMAP
000000
000000
000000
000000
000000
000000
000000
000000
000000
000000
03FF80
03FF80
018300
018300
018300
018300
018300
018300
018300
018300
018300
018300
018300
018300
018300
018300
018300
018300
018300
018300
018300
018300
018300
018300
018300
018300
630300
630300
7E0F80
3C0F80
000000
000000
000000
000000
000000
000000
000000
000000
000000
000000
ENDCHAR

STARTCHAR afii10030
ENCODING 188
SWIDTH 361 0
DWIDTH 18 0
BBX 18 50 0 -10
BITMAP
000000
000000
000000
000000
000000
000000
000000
000000
000000
000000
3C0780
0C0600
0C0600
0E0E00
0E0E00
0E0E00
0E0E00
0E0E00
0E0E00
0D1600
0D1600
0D1600
0D1600
0DB600
0DB600
0CA600
0CA600
0CA600
0CA600
0C4600
0C4600
0C4600
0C4600
0C0600
0C0600
0C0600
0C0600
0C0600
3F1F80
3F1F80
000000
000000
000000
000000
000000
000000
000000
000000
000000
000000
ENDCHAR

STARTCHAR afii10031
ENCODING 189
SWIDTH 361 0
DWIDTH 18 0
BBX 18 50 0 -10
BITMAP
000000
000000
000000
000000
000000
000000
000000
000000
000000
000000
3E1F00
3E1F00
180600
180600
180600
180600
180600
180600
180600
180600
180600
180600
180600
180600
1FFE00
1FFE00
180600
180600
180600
180600
180600
180600
180600
180600
180600
180600
180600
180600
3E1F00
3E1F00
000000
000000
000000
000000
000000
000000
000000
000000
000000
000000
ENDCHAR

STARTCHAR afii10032
ENCODING 190
SWIDTH 361 0
DWIDTH 18 0
BBX 18 50 0 -10
BITMAP
000000
000000
000000
000000
000000
000000
000000
000000
000000
000000
07F800
07F800
1C0E00
1C0E00
180600
180600
300300
300300
300300
300300
300300
300300
300300
300300
300300
300300
300300
300300
300300
300300
300300
300300
300300
300300
180600
180600
1C0E00
1C0E00
07F800
07F800
000000
000000
000000
000000
000000
000000
000000
000000
000000
000000
ENDCHAR

STARTCHAR afii10033
ENCODING 191
SWIDTH 361 0
DWIDTH 18 0
BBX 18 50 0 -10
BITMAP
000000
000000
000000
000000
000000
000000
000000
000000
000000
000000
7FFF80
7FFF80
180600
180600
180600
180600
180600
180600
180600
180600
180600
180600
180600
180600
180600
180600
180600
180600
180600
180600
180600
180600
180600
180600
180600
180600
180600
180600
7E1F80
7E1F80
000000
000000
000000
000000
000000
000000
000000
000000
000000
000000
ENDCHAR

STARTCHAR afii10034
ENCODING 192
SWIDTH 361 0
DWIDTH 18 0
BBX 18 50 0 -10
BITMAP
000000
000000
000000
000000
000000
000000
000000
000000
000000
000000
3FFC00
3FFC00
0C0600
0C0600
0C0300
0C0300
0C0300
0C0300
0C0300
0C0300
0C0300
0C0300
0C0600
0C0600
0FFC00
0FFC00
0C0000
0C0000
0C0000
0C0000
0C0000
0C0000
0C0000
0C0000
0C0000
0C0000
0C0000
0C0000
3F8000
3F8000
000000
000000
000000
000000
000000
000000
000000
000000
000000
000000
ENDCHAR

STARTCHAR afii10035
ENCODING 193
SWIDTH 361 0
DWIDTH 18 0
BBX 18 50 0 -10
BITMAP
000000
000000
000000
000000
000000
000000
000000
000000
000000
000000
07F600
07F600
181E00
181E00
180600
180600
300600
300600
300000
300000
300000
300000
300000
300000
300000
300000
300000
300000
300000
300000
300000
300000
300600
300600
180600
180600
1C1C00
1C1C00
07F000
07F000
000000
000000
000000
000000
000000
000000
000000
000000
000000
000000
ENDCHAR

STARTCHAR afii10036
ENCODING 194
SWIDTH 361 0
DWIDTH 18 0
BBX 18 50 0 -10
BITMAP
000000
000000
000000
000000
000000
000000
000000
000000
000000
000000
3FFF00
3FFF00
30C300
30C300
30C300
30C300
30C300
30C300
30C300
30C300
00C000
00C000
00C000
00C000
00C000
00C000
00C000
00C000
00C000
00C000
00C000
00C000
00C000
00C000
00C000
00C000
00C000
00C000
07F800
07F800
000000
000000
000000
000000
000000
000000
000000
000000
000000
000000
ENDCHAR

STARTCHAR afii10037
ENCODING 195
SWIDTH 361 0
DWIDTH 18 0
BBX 18 50 0 -10
BITMAP
000000
000000
000000
000000
000000
000000
000000
000000
000000
000000
FC0FC0
FC0FC0
300300
300300
380300
180700
180600
1C0600
0C0E00
0C0C00
0E0C00
061C00
061800
071800
033800
03B000
01B000
01F000
00E000
00E000
00C000
00C000
01C000
618000
618000
638000
630000
670000
7E0000
3C0000
000000
000000
000000
000000
000000
000000
000000
000000
000000
000000
ENDCHAR

STARTCHAR afii10038
ENCODING 196
SWIDTH 361 0
DWIDTH 18 0
BBX 18 50 0 -10
BITMAP
000000
000000
000000
000000
000000
000000
000000
000000
000000
000000
03F000
03F000
00C000
00C000
00C000
03F000
0FFC00
1EDE00
38C700
70C380
60C180
E0C1C0
C0C0C0
C0C0C0
C0C0C0
C0C0C0
C0C0C0
C0C0C0
E0C1C0
60C180
70C380
38C700
1EDE00
0FFC00
03F000
00C000
00C000
00C000
03F000
03F000
000000
000000
000000
000000
000000
000000
000000
000000
000000
000000
ENDCHAR

STARTCHAR afii10039
ENCODING 197
SWIDTH 361 0
DWIDTH 18 0
BBX 18 50 0 -10
BITMAP
000000
000000
000000
000000
000000
000000
000000
000000
000000
000000
7C1E00
7C1E00
380C00
380C00
1C1800
1C1800
0C3000
0C3000
062000
062000
076000
076000
03C000
03C000
01C000
01C000
03E000
03E000
067000
067000
0C3800
0C3800
0C1800
0C1800
180C00
180C00
380E00
380E00
7C1F00
7C1F00
000000
000000
000000
000000
000000
000000
000000
000000
000000
000000
ENDCHAR

STARTCHAR afii10040
ENCODING 198
SWIDTH 361 0
DWIDTH 18 0
BBX 18 50 0 -10
BITMAP
000000
000000
000000
000000
000000
000000
000000
000000
000000
000000
3E1F00
3E1F00
180600
180600
180600
180600
180600
180600
180600
180600
180600
180600
180600
180600
180600
180600
180600
180600
180600
180600
180600
180600
180600
180600
180600
180600
180600
180600
3FFF80
3FFF80
000180
000180
000180
000180
000180
000000
000000
000000
000000
000000
ENDCHAR

STARTCHAR afii10041
ENCODING 199
SWIDTH 361 0
DWIDTH 18 0
BBX 18 50 0 -10
BITMAP
000000
000000
000000
000000
000000
000000
000000
000000
000000
000000
3E1F00
3E1F00
180600
180600
180600
180600
180600
180600
180600
180600
180600
180600
180600
180600
180600
180E00
1C1E00
0E7600
0FF600
03C600
000600
000600
000600
000600
000600
000600
000600
000600
001F00
001F00
000000
000000
000000
000000
000000
000000
000000
000000
000000
000000
ENDCHAR

STARTCHAR afii10042
ENCODING 200
SWIDTH 361 0
DWIDTH 18 0
BBX 18 50 0 -10
BITMAP
000000
000000
000000
000000
000000
000000
000000
000000
000000
000000
79E780
79E780
30C300
30C300
30C300
30C300
30C300
30C300
30C300
30C300
30C300
30C300
30C300
30C300
30C300
30C300
30C300
30C300
30C300
30C300
30C300
30C300
30C300
30C300
30C300
30C300
30C300
30C300
7FFF80
7FFF80
000000
000000
000000
000000
000000
000000
000000
000000
000000
000000
ENDCHAR

STARTCHAR afii10043
ENCODING 201
SWIDTH 361 0
DWIDTH 18 0
BBX 18 50 0 -10
BITMAP
000000
000000
000000
000000
000000
000000
000000
000000
000000
000000
71E780
71E780
30C300
30C300
30C300
30C300
30C300
30C300
30C300
30C300
30C300
30C300
30C300
30C300
30C300
30C300
30C300
30C300
30C300
30C300
30C300
30C300
30C300
30C300
30C300
30C300
30C300
30C300
7FFFC0
7FFFC0
0000C0
0000C0
0000C0
0000C0
0000C0
000000
000000
000000
000000
000000
ENDCHAR

STARTCHAR afii10044
ENCODING 202
SWIDTH 361 0
DWIDTH 18 0
BBX 18 50 0 -10
BITMAP
000000
000000
000000
000000
000000
000000
000000
000000
000000
000000
FFC000
FFC000
C30000
C30000
C30000
C30000
C30000
030000
030000
030000
030000
030000
030000
030000
03FC00
03FF00
030380
030180
0300C0
0300C0
0300C0
0300C0
0300C0
0300C0
0300C0
0300C0
030180
030380
0FFF00
0FFC00
000000
000000
000000
000000
000000
000000
000000
000000
000000
000000
ENDCHAR

STARTCHAR afii10045
ENCODING 203
SWIDTH 361 0
DWIDTH 18 0
BBX 18 50 0 -10
BITMAP
000000
000000
000000
000000
000000
000000
000000
000000
000000
000000
7E0FC0
7E0FC0
180300
180300
180300
180300
180300
180300
180300
180300
180300
180300
180300
1F8300
1FE300
18F300
183300
183B00
181B00
181B00
181B00
181B00
181B00
181B00
181B00
181B00
183300
187300
7FEFC0
7F8FC0
000000
000000
000000
000000
000000
000000
000000
000000
000000
000000
ENDCHAR

STARTCHAR afii10046
ENCODING 204
SWIDTH 361 0
DWIDTH 18 0
BBX 18 50 0 -10
BITMAP
000000
000000
000000
000000
000000
000000
000000
000000
000000
000000
7E0000
7E0000
180000
180000
180000
180000
180000
180000
180000
180000
180000
180000
180000
1FE000
1FF800
183C00
180E00
180600
180700
180300
180300
180300
180300
180300
180700
180600
180E00
183C00
7FF800
7FE000
000000
000000
000000
000000
000000
000000
000000
000000
000000
000000
ENDCHAR

STARTCHAR afii10047
ENCODING 205
SWIDTH 361 0
DWIDTH 18 0
BBX 18 50 0 -10
BITMAP
000000
000000
000000
000000
000000
000000
000000
000000
000000
000000
37F000
37F000
3C0C00
3C0C00
300C00
300C00
300600
300600
000600
000600
000600
000600
000600
03FE00
03FE00
000600
000600
000600
000600
000600
000600
000600
300600
300600
300C00
300C00
1C1C00
1C1C00
07F000
07F000
000000
000000
000000
000000
000000
000000
000000
000000
000000
000000
ENDCHAR

STARTCHAR afii10048
ENCODING 206
SWIDTH 361 0
DWIDTH 18 0
BBX 18 50 0 -10
BITMAP
000000
000000
000000
000000
000000
000000
000000
000000
000000
000000
FC3C00
FCFF00
31C380
318180
318180
3300C0
3300C0
3300C0
3300C0
3300C0
3300C0
3300C0
3300C0
3300C0
3F00C0
3F00C0
3300C0
3300C0
3300C0
3300C0
3300C0
3300C0
3300C0
3300C0
3300C0
318180
318180
31C380
FCFF00
FC3C00
000000
000000
000000
000000
000000
000000
000000
000000
000000
000000
ENDCHAR

STARTCHAR afii10049
ENCODING 207
SWIDTH 361 0
DWIDTH 18 0
BBX 18 50 0 -10
BITMAP
000000
000000
000000
000000
000000
000000
000000
000000
000000
000000
01FF00
07FF00
0F0C00
1C0C00
180C00
380C00
300C00
300C00
300C00
300C00
300C00
380C00
180C00
1C0C00
0F0C00
07FC00
01FC00
030C00
060C00
060C00
0C0C00
0C0C00
180C00
180C00
180C00
300C00
300C00
300C00
F03F00
E03F00
000000
000000
000000
000000
000000
000000
000000
000000
000000
000000
ENDCHAR

STARTCHAR afii10065
ENCODING 208
SWIDTH 361 0
DWIDTH 18 0
BBX 18 50 0 -10
BITMAP
000000
000000
000000
000000
000000
000000
000000
000000
000000
000000
000000
000000
000000
000000
000000
000000
07F800
07F800
181C00
181C00
180C00
180C00
000C00
000C00
07FC00
07FC00
1C0C00
1C0C00
380C00
380C00
300C00
300C00
300C00
300C00
381C00
381C00
1C6C00
1C6C00
0FCE00
0FCE00
000000
000000
000000
000000
000000
000000
000000
000000
000000
000000
ENDCHAR

STARTCHAR afii10066
ENCODING 209
SWIDTH 361 0
DWIDTH 18 0
BBX 18 50 0 -10
BITMAP
000000
000000
000000
000000
000000
000000
000000
000000
000000
000000
000600
07FE00
1FF800
180000
300000
300000
37F000
37F000
3E3C00
3E3C00
380C00
380C00
380E00
380E00
300600
300600
300600
300600
300600
300600
300600
300600
380E00
380E00
180C00
180C00
1E3C00
1E3C00
07F000
07F000
000000
000000
000000
000000
000000
000000
000000
000000
000000
000000
ENDCHAR

STARTCHAR afii10067
ENCODING 210
SWIDTH 361 0
DWIDTH 18 0
BBX 18 50 0 -10
BITMAP
000000
000000
000000
000000
000000
000000
000000
000000
000000
000000
000000
000000
000000
000000
000000
000000
3FF000
3FFC00
180C00
180600
180600
180600
180600
180600
180600
180600
180C00
1FFC00
1FF800
180C00
180C00
180600
180600
180600
180600
180600
180600
180C00
3FFC00
3FF000
000000
000000
000000
000000
000000
000000
000000
000000
000000
000000
ENDCHAR

STARTCHAR afii10068
ENCODING 211
SWIDTH 361 0
DWIDTH 18 0
BBX 18 50 0 -10
BITMAP
000000
000000
000000
000000
000000
000000
000000
000000
000000
000000
000000
000000
000000
000000
000000
000000
3FFE00
3FFE00
0C0600
0C0600
0C0600
0C0600
0C0600
0C0000
0C0000
0C0000
0C0000
0C0000
0C0000
0C0000
0C0000
0C0000
0C0000
0C0000
0C0000
0C0000
0C0000
0C0000
3F0000
3F0000
000000
000000
000000
000000
000000
000000
000000
000000
000000
000000
ENDCHAR

STARTCHAR afii10069
ENCODING 212
SWIDTH 361 0
DWIDTH 18 0
BBX 18 50 0 -10
BITMAP
000000
000000
000000
000000
000000
000000
000000
000000
000000
000000
000000
000000
000000
000000
000000
000000
1FFF80
1FFF80
060600
060600
060600
060600
060600
060600
060600
060600
060600
060600
060600
060600
060600
060600
060600
060600
060600
0C0600
0C0600
180600
7FFF80
7FFF80
600180
600180
600180
600180
600180
000000
000000
000000
000000
000000
ENDCHAR

STARTCHAR afii10070
ENCODING 213
SWIDTH 361 0
DWIDTH 18 0
BBX 18 50 0 -10
BITMAP
000000
000000
000000
000000
000000
000000
000000
000000
000000
000000
000000
000000
000000
000000
000000
000000
03F000
03F000
0FFC00
0E1C00
0C0C00
0C0C00
1C0E00
1C0E00
180600
180600
1FFE00
1FFE00
180000
180000
180000
180000
1C0E00
1C0E00
0C0C00
0C0C00
0E1C00
0E1C00
03F000
03F000
000000
000000
000000
000000
000000
000000
000000
000000
000000
000000
ENDCHAR

STARTCHAR afii10072
ENCODING 214
SWIDTH 361 0
DWIDTH 18 0
BBX 18 50 0 -10
BITMAP
000000
000000
000000
000000
000000
000000
000000
000000
000000
000000
000000
000000
000000
000000
000000
000000
63F180
F3F3C0
F8C7C0
98C640
0CCC00
0CCC00
06D800
06D800
06D800
03F000
03F000
03F000
03F000
06D800
06D800
0CCC00
0CCC00
18C600
18C600
38C600
30C300
30C300
F3F3C0
E3F1C0
000000
000000
000000
000000
000000
000000
000000
000000
000000
000000
ENDCHAR

STARTCHAR afii10073
ENCODING 215
SWIDTH 361 0
DWIDTH 18 0
BBX 18 50 0 -10
BITMAP
000000
000000
000000
000000
000000
000000
000000
000000
000000
000000
000000
000000
000000
000000
000000
000000
1BF000
1BF000
1E1C00
1E0C00
1C0E00
1C0600
180600
180600
180600
000600
000E00
03FC00
03F800
001C00
000E00
000600
180600
180600
180600
180E00
0E0C00
0E3C00
07F000
07F000
000000
000000
000000
000000
000000
000000
000000
000000
000000
000000
ENDCHAR

STARTCHAR afii10074
ENCODING 216
SWIDTH 361 0
DWIDTH 18 0
BBX 18 50 0 -10
BITMAP
000000
000000
000000
000000
000000
000000
000000
000000
000000
000000
000000
000000
000000
000000
000000
000000
7E03C0
7E03C0
180700
180700
180F00
180F00
181B00
181B00
183300
183300
186300
186300
18C300
18C300
198300
198300
1B0300
1B0300
1E0300
1E0300
1C0300
1C0300
780FC0
780FC0
000000
000000
000000
000000
000000
000000
000000
000000
000000
000000
ENDCHAR

STARTCHAR afii10075
ENCODING 217
SWIDTH 361 0
DWIDTH 18 0
BBX 18 50 0 -10
BITMAP
000000
000000
000000
000000
000000
000000
000000
030C00
030C00
039C00
01F800
00F000
000000
000000
000000
000000
7E03C0
7E03C0
180700
180700
180F00
180F00
181B00
181B00
183300
183300
186300
186300
18C300
18C300
198300
198300
1B0300
1B0300
1E0300
1E0300
1C0300
1C0300
780FC0
780FC0
000000
000000
000000
000000
000000
000000
000000
000000
000000
000000
ENDCHAR

STARTCHAR afii10076
ENCODING 218
SWIDTH 361 0
DWIDTH 18 0
BBX 18 50 0 -10
BITMAP
000000
000000
000000
000000
000000
000000
000000
000000
000000
000000
000000
000000
000000
000000
000000
000000
3E0E00
3E1F00
183B00
186300
186000
18C000
18C000
198000
198000
1B0000
1B0000
1F8000
1F8000
198000
18C000
186000
187000
183000
183800
181800
181800
180C00
3E0F00
3E0700
000000
000000
000000
000000
000000
000000
000000
000000
000000
000000
ENDCHAR

STARTCHAR afii10077
ENCODING 219
SWIDTH 361 0
DWIDTH 18 0
BBX 18 50 0 -10
BITMAP
000000
000000
000000
000000
000000
000000
000000
000000
000000
000000
000000
000000
000000
000000
000000
000000
1FFF80
1FFF80
060600
060600
060600
060600
060600
060600
060600
060600
060600
060600
060600
060600
060600
060600
060600
060600
060600
C60600
C60600
CC0600
FC1F80
781F80
000000
000000
000000
000000
000000
000000
000000
000000
000000
000000
ENDCHAR

STARTCHAR afii10078
ENCODING 220
SWIDTH 361 0
DWIDTH 18 0
BBX 18 50 0 -10
BITMAP
000000
000000
000000
000000
000000
000000
000000
000000
000000
000000
000000
000000
000000
000000
000000
000000
F003C0
F003C0
300300
380700
380700
380700
3C0F00
3C0F00
3C0F00
3E1F00
361B00
361B00
373B00
333300
333300
33F300
31E300
31E300
31E300
30C300
30C300
30C300
FC0FC0
FC0FC0
000000
000000
000000
000000
000000
000000
000000
000000
000000
000000
ENDCHAR

STARTCHAR afii10079
ENCODING 221
SWIDTH 361 0
DWIDTH 18 0
BBX 18 50 0 -10
BITMAP
000000
000000
000000
000000
000000
000000
000000
000000
000000
000000
000000
000000
000000
000000
000000
000000
7E1F80
7E1F80
180600
180600
180600
180600
180600
180600
180600
180600
180600
1FFE00
1FFE00
180600
180600
180600
180600
180600
180600
180600
180600
180600
7E1F80
7E1F80
000000
000000
000000
000000
000000
000000
000000
000000
000000
000000
ENDCHAR

STARTCHAR afii10080
ENCODING 222
SWIDTH 361 0
DWIDTH 18 0
BBX 18 50 0 -10
BITMAP
000000
000000
000000
000000
000000
000000
000000
000000
000000
000000
000000
000000
000000
000000
000000
000000
03F800
03F800
0F1E00
0F1E00
0C0600
0C0600
1C0700
1C0700
180300
180300
180300
180300
180300
180300
180300
180300
1C0700
1C0700
0C0600
0C0600
0F1E00
0F1E00
03F800
03F800
000000
000000
000000
000000
000000
000000
000000
000000
000000
000000
ENDCHAR

STARTCHAR afii10081
ENCODING 223
SWIDTH 361 0
DWIDTH 18 0
BBX 18 50 0 -10
BITMAP
000000
000000
000000
000000
000000
000000
000000
000000
000000
000000
000000
000000
000000
000000
000000
000000
3FFE00
3FFE00
180C00
180C00
180C00
180C00
180C00
180C00
180C00
180C00
180C00
180C00
180C00
180C00
180C00
180C00
180C00
180C00
180C00
180C00
180C00
180C00
3E3E00
3E3E00
000000
000000
000000
000000
000000
000000
000000
000000
000000
000000
ENDCHAR

STARTCHAR afii10082
ENCODING 224
SWIDTH 361 0
DWIDTH 18 0
BBX 18 50 0 -10
BITMAP
000000
000000
000000
000000
000000
000000
000000
000000
000000
000000
000000
000000
000000
000000
000000
000000
3BF000
3BF000
1E1C00
1E1C00
1C0C00
1C0C00
180600
180600
180600
180600
180600
180600
180600
180600
180600
180600
180600
180600
1C0C00
1C0C00
1E1C00
1E1C00
1BF000
1BF000
180000
180000
180000
180000
180000
180000
180000
180000
3C0000
3C0000
ENDCHAR

STARTCHAR afii10083
ENCODING 225
SWIDTH 361 0
DWIDTH 18 0
BBX 18 50 0 -10
BITMAP
000000
000000
000000
000000
000000
000000
000000
000000
000000
000000
000000
000000
000000
000000
000000
000000
03F600
03F600
0E1E00
0E1E00
0C0E00
0C0E00
1C0600
1C0600
180600
180600
180000
180000
180000
180000
180000
180000
1C0600
1C0600
0C0600
0C0600
0E1C00
0E1C00
03F800
03F800
000000
000000
000000
000000
000000
000000
000000
000000
000000
000000
ENDCHAR

STARTCHAR afii10084
ENCODING 226
SWIDTH 361 0
DWIDTH 18 0
BBX 18 50 0 -10
BITMAP
000000
000000
000000
000000
000000
000000
000000
000000
000000
000000
000000
000000
000000
000000
000000
000000
3FFF00
3FFF00
30C300
30C300
30C300
30C300
30C300
30C300
00C000
00C000
00C000
00C000
00C000
00C000
00C000
00C000
00C000
00C000
00C000
00C000
00C000
00C000
07F800
07F800
000000
000000
000000
000000
000000
000000
000000
000000
000000
000000
ENDCHAR

STARTCHAR afii10085
ENCODING 227
SWIDTH 361 0
DWIDTH 18 0
BBX 18 50 0 -10
BITMAP
000000
000000
000000
000000
000000
000000
000000
000000
000000
000000
000000
000000
000000
000000
000000
000000
7E0FC0
7E0FC0
180300
180300
180300
0C0300
0C0600
0C0600
060600
060C00
060C00
060C00
030C00
031800
031800
019800
01B000
01B000
00F000
00E000
00E000
00E000
00C000
00C000
00C000
308000
318000
318000
3B0000
1F0000
1E0000
0C0000
000000
000000
ENDCHAR

STARTCHAR afii10086
ENCODING 228
SWIDTH 361 0
DWIDTH 18 0
BBX 18 50 0 -10
BITMAP
000000
000000
000000
000000
000000
000000
000000
000000
000000
000000
03F000
03F000
00C000
00C000
00C000
00C000
03F000
0FFC00
1FFE00
3CCF00
30C300
70C380
60C180
60C180
60C180
60C180
60C180
60C180
60C180
60C180
60C180
60C180
60C180
60C180
70C380
30C300
3CCF00
1FFE00
0FFC00
03F000
00C000
00C000
00C000
00C000
03F000
03F000
000000
000000
000000
000000
ENDCHAR

STARTCHAR afii10087
ENCODING 229
SWIDTH 361 0
DWIDTH 18 0
BBX 18 50 0 -10
BITMAP
000000
000000
000000
000000
000000
000000
000000
000000
000000
000000
000000
000000
000000
000000
000000
000000
1E1E00
1E1E00
0C0C00
0C0C00
061800
061800
033000
033000
01E000
01E000
00C000
00C000
01E000
01E000
033000
033000
061800
061800
0C1C00
0C1C00
1C0E00
1C0E00
3E1F00
3E1F00
000000
000000
000000
000000
000000
000000
000000
000000
000000
000000
ENDCHAR

STARTCHAR afii10088
ENCODING 230
SWIDTH 361 0
DWIDTH 18 0
BBX 18 50 0 -10
BITMAP
000000
000000
000000
000000
000000
000000
000000
000000
000000
000000
000000
000000
000000
000000
000000
000000
3E3E00
3E3E00
180C00
180C00
180C00
180C00
180C00
180C00
180C00
180C00
180C00
180C00
180C00
180C00
180C00
180C00
180C00
180C00
180C00
180C00
180C00
180C00
3FFF00
3FFF00
000300
000300
000300
000300
000300
000000
000000
000000
000000
000000
ENDCHAR

STARTCHAR afii10089
ENCODING 231
SWIDTH 361 0
DWIDTH 18 0
BBX 18 50 0 -10
BITMAP
000000
000000
000000
000000
000000
000000
000000
000000
000000
000000
000000
000000
000000
000000
000000
000000
3E1F00
3E1F00
180600
180600
180600
180600
180600
180600
180600
180600
180600
180600
180E00
1C1E00
0FFE00
0FF600
03C600
000600
000600
000600
000600
000600
001F00
001F00
000000
000000
000000
000000
000000
000000
000000
000000
000000
000000
ENDCHAR

STARTCHAR afii10090
ENCODING 232
SWIDTH 361 0
DWIDTH 18 0
BBX 18 50 0 -10
BITMAP
000000
000000
000000
000000
000000
000000
000000
000000
000000
000000
000000
000000
000000
000000
000000
000000
79EF80
79EF80
30C300
30C300
30C300
30C300
30C300
30C300
30C300
30C300
30C300
30C300
30C300
30C300
30C300
30C300
30C300
30C300
30C300
30C300
30C300
30C300
7FFF80
7FFF80
000000
000000
000000
000000
000000
000000
000000
000000
000000
000000
ENDCHAR

STARTCHAR afii10091
ENCODING 233
SWIDTH 361 0
DWIDTH 18 0
BBX 18 50 0 -10
BITMAP
000000
000000
000000
000000
000000
000000
000000
000000
000000
000000
000000
000000
000000
000000
000000
000000
79E780
79E780
30C300
30C300
30C300
30C300
30C300
30C300
30C300
30C300
30C300
30C300
30C300
30C300
30C300
30C300
30C300
30C300
30C300
30C300
30C300
30C300
7FFFC0
7FFFC0
0000C0
0000C0
0000C0
0000C0
0000C0
000000
000000
000000
000000
000000
ENDCHAR

STARTCHAR afii10092
ENCODING 234
SWIDTH 361 0
DWIDTH 18 0
BBX 18 50 0 -10
BITMAP
000000
000000
000000
000000
000000
000000
000000
000000
000000
000000
000000
000000
000000
000000
000000
000000
FFC000
FFC000
C30000
C30000
C30000
C30000
C30000
030000
030000
030000
030000
03FC00
03FF00
030380
030180
0300C0
0300C0
0300C0
0300C0
0300C0
030180
030380
07FF00
07FC00
000000
000000
000000
000000
000000
000000
000000
000000
000000
000000
ENDCHAR

STARTCHAR afii10093
ENCODING 235
SWIDTH 361 0
DWIDTH 18 0
BBX 18 50 0 -10
BITMAP
000000
000000
000000
000000
000000
000000
000000
000000
000000
000000
000000
000000
000000
000000
000000
000000
FC0FC0
FC0FC0
300300
300300
300300
300300
300300
300300
300300
300300
300300
3F8300
3FE300
30E300
307300
303300
303300
303300
303300
303300
307300
30E300
FFEFC0
FF8FC0
000000
000000
000000
000000
000000
000000
000000
000000
000000
000000
ENDCHAR

STARTCHAR afii10094
ENCODING 236
SWIDTH 361 0
DWIDTH 18 0
BBX 18 50 0 -10
BITMAP
000000
000000
000000
000000
000000
000000
000000
000000
000000
000000
000000
000000
000000
000000
000000
000000
3F0000
3F0000
0C0000
0C0000
0C0000
0C0000
0C0000
0C0000
0C0000
0C0000
0C0000
0FF800
0FFE00
0C0E00
0C0700
0C0300
0C0300
0C0300
0C0300
0C0300
0C0700
0C0E00
3FFE00
3FF800
000000
000000
000000
000000
000000
000000
000000
000000
000000
000000
ENDCHAR

STARTCHAR afii10095
ENCODING 237
SWIDTH 361 0
DWIDTH 18 0
BBX 18 50 0 -10
BITMAP
000000
000000
000000
000000
000000
000000
000000
000000
000000
000000
000000
000000
000000
000000
000000
000000
1BF000
1BF000
1E1C00
1E1C00
1C0C00
1C0C00
180E00
180E00
180600
180600
000600
00FE00
00FE00
000600
000600
000600
180E00
180E00
180C00
180C00
0E1C00
0E1C00
07F000
07F000
000000
000000
000000
000000
000000
000000
000000
000000
000000
000000
ENDCHAR

STARTCHAR afii10096
ENCODING 238
SWIDTH 361 0
DWIDTH 18 0
BBX 18 50 0 -10
BITMAP
000000
000000
000000
000000
000000
000000
000000
000000
000000
000000
000000
000000
000000
000000
000000
000000
FC7E00
FC7E00
31C380
31C380
318180
3381C0
3300C0
3300C0
3300C0
3300C0
3300C0
3F00C0
3F00C0
3300C0
3300C0
3300C0
3300C0
3300C0
3381C0
318180
31C380
31C380
FC7E00
FC7E00
000000
000000
000000
000000
000000
000000
000000
000000
000000
000000
ENDCHAR

STARTCHAR afii10097
ENCODING 239
SWIDTH 361 0
DWIDTH 18 0
BBX 18 50 0 -10
BITMAP
000000
000000
000000
000000
000000
000000
000000
000000
000000
000000
000000
000000
000000
000000
000000
000000
01FF00
07FF00
0F0600
0C0600
1C0600
180600
180600
180600
180600
1C0600
0C0600
0F0600
07FE00
01FE00
00C600
018600
030600
030600
060600
060600
0C0600
0C0600
381F80
381F80
000000
000000
000000
000000
000000
000000
000000
000000
000000
000000
ENDCHAR

STARTCHAR afii61352
ENCODING 240
SWIDTH 361 0
DWIDTH 18 0
BBX 18 50 0 -10
BITMAP
000000
000000
000000
000000
000000
000000
000000
000000
000000
000000
F1F800
F1F800
306000
386000
386700
386F80
386D80
3C6D80
3C6D80
3C6D80
3C6D80
346D80
366D80
366D80
366D80
366F80
336700
336000
336000
336000
31E000
31EF80
31EF80
31E000
30E000
30E000
30E000
30E000
FC6000
FC6000
000000
000000
000000
000000
000000
000000
000000
000000
000000
000000
ENDCHAR

STARTCHAR afii10071
ENCODING 241
SWIDTH 361 0
DWIDTH 18 0
BBX 18 50 0 -10
BITMAP
000000
000000
000000
000000
000000
000000
0E1C00
0E1C00
0E1C00
0E1C00
000000
000000
000000
000000
000000
000000
03F000
03F000
0FFC00
0E1C00
0C0C00
0C0C00
1C0E00
1C0E00
180600
180600
1FFE00
1FFE00
180000
180000
180000
180000
1C0E00
1C0E00
0C0C00
0C0C00
0E1C00
0E1C00
03F000
03F000
000000
000000
000000
000000
000000
000000
000000
000000
000000
000000
ENDCHAR

STARTCHAR afii10099
ENCODING 242
SWIDTH 361 0
DWIDTH 18 0
BBX 18 50 0 -10
BITMAP
000000
000000
000000
000000
000000
000000
000000
380000
380000
180000
180000
180000
7FC000
7FC000
180000
180000
19FC00
19FC00
1F0E00
1F0E00
1C0600
1C0600
180600
180600
180600
180600
180600
180600
180600
180600
180600
180600
180600
180600
180600
180600
180600
180600
3E0600
3E0600
000600
000600
000600
000E00
000C00
001C00
007800
0FF000
0FC000
000000
ENDCHAR

STARTCHAR afii10100
ENCODING 243
SWIDTH 361 0
DWIDTH 18 0
BBX 18 50 0 -10
BITMAP
000000
000000
000000
000000
003E00
003E00
007800
007800
01E000
01E000
018000
018000
000000
000000
000000
000000
3FFF00
3FFF00
060300
060300
060300
060300
060300
060000
060000
060000
060000
060000
060000
060000
060000
060000
060000
060000
060000
060000
060000
060000
3FC000
3FC000
000000
000000
000000
000000
000000
000000
000000
000000
000000
000000
ENDCHAR

STARTCHAR afii10101
ENCODING 244
SWIDTH 361 0
DWIDTH 18 0
BBX 18 50 0 -10
BITMAP
000000
000000
000000
000000
000000
000000
000000
000000
000000
000000
000000
000000
000000
000000
000000
000000
03F600
03F600
0E1E00
0E1E00
0C0E00
0C0E00
1C0600
1C0600
180600
180600
180000
1FE000
1FE000
180000
180000
180000
1C0600
1C0600
0C0600
0C0600
0E1C00
0E1C00
03F800
03F800
000000
000000
000000
000000
000000
000000
000000
000000
000000
000000
ENDCHAR

STARTCHAR afii10102
ENCODING 245
SWIDTH 361 0
DWIDTH 18 0
BBX 18 50 0 -10
BITMAP
000000
000000
000000
000000
000000
000000
000000
000000
000000
000000
000000
000000
000000
000000
000000
000000
07F200
07F200
0C1A00
0C1A00
180E00
180E00
1C0600
1C0600
0F0000
0F0000
03E000
03E000
003800
003800
180E00
180E00
180600
180600
1C0600
1C0600
160C00
160C00
13F800
13F800
000000
000000
000000
000000
000000
000000
000000
000000
000000
000000
ENDCHAR

STARTCHAR afii10103
ENCODING 246
SWIDTH 362 0
DWIDTH 18 0
BBX 18 50 0 -10
BITMAP
000000
000000
000000
000000
00C000
00C000
00C000
00C000
00C000
00C000
000000
000000
000000
000000
000000
000000
1FC000
1FC000
00C000
00C000
00C000
00C000
00C000
00C000
00C000
00C000
00C000
00C000
00C000
00C000
00C000
00C000
00C000
00C000
00C000
00C000
00C000
00C000
1FFE00
1FFE00
000000
000000
000000
000000
000000
000000
000000
000000
000000
000000
ENDCHAR

STARTCHAR afii10104
ENCODING 247
SWIDTH 361 0
DWIDTH 18 0
BBX 18 50 0 -10
BITMAP
000000
000000
000000
000000
000000
000000
1C3800
1C3800
1C3800
1C3800
1C3800
1C3800
000000
000000
000000
000000
1FC000
1FC000
00C000
00C000
00C000
00C000
00C000
00C000
00C000
00C000
00C000
00C000
00C000
00C000
00C000
00C000
00C000
00C000
00C000
00C000
00C000
00C000
1FFE00
1FFE00
000000
000000
000000
000000
000000
000000
000000
000000
000000
000000
ENDCHAR

STARTCHAR afii10105
ENCODING 248
SWIDTH 361 0
DWIDTH 18 0
BBX 18 50 0 -10
BITMAP
000000
000000
000000
000000
006000
006000
006000
006000
006000
006000
000000
000000
000000
000000
000000
000000
1FE000
1FE000
006000
006000
006000
006000
006000
006000
006000
006000
006000
006000
006000
006000
006000
006000
006000
006000
006000
006000
006000
006000
006000
006000
006000
006000
00E000
00E000
00C000
00C000
01C000
01C000
1F0000
1F0000
ENDCHAR

STARTCHAR afii10106
ENCODING 249
SWIDTH 361 0
DWIDTH 18 0
BBX 18 50 0 -10
BITMAP
000000
000000
000000
000000
000000
000000
000000
000000
000000
000000
000000
000000
000000
000000
000000
000000
0FFC00
0FFC00
061800
061800
061800
061800
061800
061800
061800
061800
061800
061800
061E00
061F80
061980
0618C0
0618C0
0618C0
0618C0
6618C0
6618C0
661980
7E3F80
3C3E00
000000
000000
000000
000000
000000
000000
000000
000000
000000
000000
ENDCHAR

STARTCHAR afii10107
ENCODING 250
SWIDTH 361 0
DWIDTH 18 0
BBX 18 50 0 -10
BITMAP
000000
000000
000000
000000
000000
000000
000000
000000
000000
000000
000000
000000
000000
000000
000000
000000
78F000
78F000
306000
306000
306000
306000
306000
306000
306000
306000
306000
3FFE00
3FFF80
306180
3060C0
3060C0
3060C0
3060C0
3060C0
3060C0
3060C0
306180
78FF80
78FE00
000000
000000
000000
000000
000000
000000
000000
000000
000000
000000
ENDCHAR

STARTCHAR afii10108
ENCODING 251
SWIDTH 361 0
DWIDTH 18 0
BBX 18 50 0 -10
BITMAP
000000
000000
000000
000000
000000
000000
000000
380000
380000
180000
180000
180000
7FC000
7FC000
180000
180000
19FC00
19FC00
1F0E00
1F0E00
1C0600
1C0600
180600
180600
180600
180600
180600
180600
180600
180600
180600
180600
180600
180600
180600
180600
180600
180600
3E1F00
3E1F00
000000
000000
000000
000000
000000
000000
000000
000000
000000
000000
ENDCHAR

STARTCHAR afii10109
ENCODING 252
SWIDTH 361 0
DWIDTH 18 0
BBX 18 50 0 -10
BITMAP
000000
000000
000000
000000
003E00
003E00
007800
007800
01E000
01E000
018000
018000
000000
000000
000000
000000
7E0E00
7E1F00
183B00
186300
186300
18C000
18C000
198000
198000
1B0000
1B0000
1F0000
1F8000
19C000
18E000
186000
187000
183000
183800
181800
181800
181C00
7E0F00
7E0700
000000
000000
000000
000000
000000
000000
000000
000000
000000
000000
ENDCHAR

STARTCHAR section
ENCODING 253
SWIDTH 361 0
DWIDTH 18 0
BBX 18 50 0 -10
BITMAP
000000
000000
000000
000000
000000
000000
000000
000000
000000
000000
01FE00
01FE00
060600
060600
0C0600
0C0600
0C0600
0C0600
070000
070000
07C000
07C000
04F000
04F000
0C3C00
0C3C00
0C0C00
0C0C00
0E0600
0E0600
078600
078600
01E400
01E400
007C00
007C00
001C00
001C00
000600
000600
0C0600
0C0600
0C0C00
0C0C00
0FF800
0FF800
000000
000000
000000
000000
ENDCHAR

STARTCHAR afii10110
ENCODING 254
SWIDTH 361 0
DWIDTH 18 0
BBX 18 50 0 -10
BITMAP
000000
000000
000000
000000
000000
000000
000000
030C00
030C00
039C00
01F800
00F000
000000
000000
000000
000000
7E0FC0
7E0FC0
180300
180300
180300
0C0300
0C0600
0C0600
060600
060C00
060C00
060C00
030C00
031800
031800
019800
01B000
01B000
00F000
00E000
00E000
00E000
00C000
00C000
00C000
308000
318000
318000
3B0000
1F0000
1E0000
0C0000
000000
000000
ENDCHAR

STARTCHAR afii10193
ENCODING 255
SWIDTH 361 0
DWIDTH 18 0
BBX 18 50 0 -10
BITMAP
000000
000000
000000
000000
000000
000000
000000
000000
000000
000000
000000
000000
000000
000000
000000
000000
3E3E00
3E3E00
180C00
180C00
180C00
180C00
180C00
180C00
180C00
180C00
180C00
180C00
180C00
180C00
180C00
180C00
180C00
180C00
180C00
180C00
180C00
180C00
3FFE00
3FFE00
018000
018000
018000
018000
018000
000000
000000
000000
000000
000000
ENDCHAR
ENDFONT
